<svg width="130" height="108" viewBox="0 0 130 108" fill="none" xmlns="http://www.w3.org/2000/svg">
<path d="M10.5979 75.4479C6.35875 78.29 7.77179 83.69 16.8153 86.2479C26.1414 89.3742 36.3153 90.2268 46.2066 88.5216C46.7718 88.5216 47.337 88.2374 47.6196 88.2374V78.5742L38.0109 81.7005C34.337 82.8373 30.6631 83.1216 26.9892 82.2689C24.1631 81.4163 24.7283 79.711 28.1196 78.29L47.6196 71.4689V60.9531L20.4892 70.3321C17.0979 71.4689 13.7066 73.1742 10.5979 75.4479ZM76.1631 32.8163V60.3847C87.7501 66.0689 96.7935 60.3847 96.7935 45.6058C96.7935 30.5426 91.424 23.7216 75.8805 18.3216C67.6848 15.4795 59.2066 12.9216 50.7283 11.2163V93.3531L70.5109 99.3216V30.2584C70.5109 27.1321 70.5109 24.8584 72.7718 25.711C75.8805 26.5637 76.1631 29.69 76.1631 32.8163ZM112.902 68.911C104.707 66.0689 95.9457 64.9321 87.4674 65.7847C82.9457 66.0689 78.7066 67.2058 74.7501 68.6268L73.9022 68.911V79.9952L92.2718 73.1742C95.9457 72.0373 99.6196 71.7531 103.294 72.6058C106.12 73.4584 105.554 75.1637 102.163 76.5847L73.9022 87.1005V97.9005L112.902 83.4058C115.728 82.2689 118.272 80.8479 120.533 78.5742C122.511 75.7321 121.663 71.7531 112.902 68.911Z" fill="white"/>
</svg>
