<svg width="112" height="102" viewBox="0 0 112 102" fill="none" xmlns="http://www.w3.org/2000/svg">
<path d="M53.6919 54.6899C50.1227 54.3493 46.507 53.0643 43.3967 51.0311C40.792 49.3281 40.204 48.6314 40.204 47.2329C40.204 44.4307 43.2833 39.5178 48.5443 33.9237C51.5359 30.7447 55.6984 27.0188 56.1471 27.1168C57.0239 27.313 64.0232 34.1559 66.6434 37.371C70.7904 42.4696 72.6988 46.6394 71.7291 48.4972C70.9915 49.9112 66.4268 52.6721 63.0742 53.73C60.3095 54.6073 56.6784 54.9789 53.6919 54.6899ZM36.6915 44.3223C34.5303 40.9989 33.4368 37.7219 32.9056 32.9896C32.7302 31.4259 32.7921 30.5332 33.3027 27.3233C33.9371 23.3238 36.2066 18.6999 38.9403 15.8513C40.106 14.6385 40.2092 14.6076 41.6276 15.0875C43.3503 15.6706 45.1865 16.9402 48.0389 19.5256L49.7049 21.0325L48.7971 22.1524C44.5727 27.3439 40.1215 34.7029 38.4452 39.2546C37.5322 41.7265 37.166 44.2139 37.558 45.246C37.821 45.9427 37.5786 45.6847 36.6915 44.3223ZM74.6537 44.8848C74.8651 43.8423 74.5969 41.9226 73.9625 39.9874C72.5957 35.797 68.0103 27.9942 63.8014 22.6942L62.4758 21.0273L63.9097 19.7062C65.7821 17.9826 67.0819 16.9505 68.4848 16.0783C69.5938 15.3868 71.1721 14.7779 71.8529 14.7779C72.2707 14.7779 73.7459 16.3106 74.9373 17.9878C76.7839 20.5784 78.1404 23.7263 78.8264 26.9982C79.27 29.114 79.3061 33.6398 78.8986 35.7454C78.5634 37.4742 77.8516 39.719 77.1604 41.2466C76.6395 42.3871 75.35 44.601 74.7826 45.3234C74.4938 45.6847 74.4938 45.6847 74.6537 44.8848ZM54.0736 13.9831C52.1291 12.9923 49.1323 11.9344 47.4766 11.6454C46.8938 11.5473 45.9086 11.4906 45.2742 11.5215C43.9074 11.5886 43.9693 11.5215 46.1614 10.4842C47.9821 9.62243 49.5037 9.11669 51.5669 8.6832C53.8879 8.19294 58.2464 8.18778 60.5313 8.67288C62.9968 9.1941 65.9007 10.2778 67.5358 11.2841L68.0206 11.5835L66.9065 11.5267C64.6886 11.4132 61.4597 12.3111 57.9885 14.0038C56.9414 14.5147 56.0336 14.9224 55.9666 14.9069C55.9047 14.8966 55.0485 14.4785 54.0736 13.9831Z" fill="#107C10"/>
<path d="M104.375 93.0868L93.8081 78.8416L103.463 65.9096H99.8369L91.9839 76.46L84.1309 65.9096H80.527L90.1597 78.8639L79.6149 93.109H83.241L91.9839 81.3122L100.749 93.109H104.375" fill="#107C10"/>
<path d="M32.3856 93.0868L21.8408 78.8416L31.4735 65.9096H27.8696L20.0165 76.46L12.1635 65.9096H8.53735L18.1923 78.8639L7.62524 93.109H11.2514L20.0165 81.3122L28.7594 93.109H32.3856" fill="#107C10"/>
<path d="M45.0438 90.2377H36.9683V80.3551H45.0438C48.1138 80.3551 51.7622 81.1787 51.7622 85.0739C51.7622 89.57 47.5354 90.2377 45.0438 90.2377ZM36.9683 68.7364H45.0438C47.2239 68.7364 50.8946 69.2706 50.8946 73.0545C50.8946 75.9035 48.7589 77.6174 45.0438 77.6174H36.9683V68.7364ZM52.4519 79.8655C51.8735 79.3758 51.2728 78.9974 50.6499 78.7303C52.6298 77.6619 53.9424 75.6364 53.9424 73.2993C53.9424 71.5632 53.2972 65.9096 45.0215 65.9096H33.876V77.6397H30.1609C29.6715 78.2629 28.5814 79.7542 28.1587 80.3551H33.876V93.0868H45.0215C51.0726 93.0868 54.8322 90.0374 54.8322 85.1406C54.8545 83.0039 54.0314 81.1787 52.4519 79.8655Z" fill="#107C10"/>
<path d="M69.3369 90.8164C63.4415 90.8164 59.3259 86.1645 59.3259 79.487C59.3259 72.8096 63.4415 68.1577 69.3369 68.1577C75.2099 68.1577 79.3033 72.8096 79.3033 79.487C79.3033 86.1422 75.2099 90.8164 69.3369 90.8164ZM69.3369 65.2864C61.5951 65.2864 56.2114 71.118 56.2114 79.487C56.2114 87.8561 61.5951 93.6877 69.3369 93.6877C77.0341 93.6877 82.4178 87.8561 82.4178 79.487C82.4178 71.118 77.0341 65.2864 69.3369 65.2864Z" fill="#107C10"/>
</svg>
