<svg width="93" height="25" viewBox="0 0 93 25" fill="none" xmlns="http://www.w3.org/2000/svg">
<path d="M19.1224 25.0002C23.0312 25.0002 26.1998 21.9763 26.1998 18.2462C26.1998 14.5161 23.0312 11.4922 19.1224 11.4922C15.2136 11.4922 12.0449 14.5161 12.0449 18.2462C12.0449 21.9763 15.2136 25.0002 19.1224 25.0002Z" fill="#97CF26"/>
<path d="M5.81785 21.3902C7.6373 21.3902 9.11226 19.9827 9.11226 18.2464C9.11226 16.5101 7.6373 15.1025 5.81785 15.1025C3.99839 15.1025 2.52344 16.5101 2.52344 18.2464C2.52344 19.9827 3.99839 21.3902 5.81785 21.3902Z" fill="#A169F7"/>
<path d="M19.116 9.89954C21.6319 9.89954 23.6714 7.95322 23.6714 5.55231C23.6714 3.1514 21.6319 1.20508 19.116 1.20508C16.6001 1.20508 14.5605 3.1514 14.5605 5.55231C14.5605 7.95322 16.6001 9.89954 19.116 9.89954Z" fill="#FF6163"/>
<path d="M5.81645 11.1012C9.02878 11.1012 11.6329 8.61614 11.6329 5.55062C11.6329 2.4851 9.02878 0 5.81645 0C2.60411 0 0 2.4851 0 5.55062C0 8.61614 2.60411 11.1012 5.81645 11.1012Z" fill="#00AAFF"/>
<path d="M44.6024 21.355H48.2763L41.4722 3.6748H38.8074L32.002 21.3556H35.6762L36.9757 17.9807H43.3029L44.6024 21.3556L37.999 15.32L40.1396 9.76033L42.2789 15.32H37.999L44.6024 21.355ZM57.384 9.28439L54.0029 18.0673L50.6234 9.28439H47.1714L51.8189 21.355H56.1876L60.8345 9.28439H57.3834M62.2793 9.28439H65.7314V21.355H62.2793V9.28439Z" fill="black"/>
<path d="M64.0097 7.91381C65.2371 7.91381 66.2322 6.96422 66.2322 5.79284C66.2322 4.62146 65.2371 3.67188 64.0097 3.67188C62.7822 3.67188 61.7871 4.62146 61.7871 5.79284C61.7871 6.96422 62.7822 7.91381 64.0097 7.91381Z" fill="black"/>
<path d="M77.9186 11.942V9.28192H73.7835V5.95215H70.3336V9.28192H67.6035V11.942H70.3336V17.1352C70.3336 19.8139 71.7371 21.6019 75.3209 21.6019C76.7049 21.6019 77.9186 21.1169 77.9186 21.1169L77.4994 18.5107C77.4994 18.5107 76.82 18.7044 75.9846 18.7044C74.9606 18.7044 73.7835 18.2832 73.7835 16.9324V11.9417L77.9186 11.942ZM85.8347 18.5934C83.9101 18.5934 82.3505 17.1373 82.3505 15.3413C82.3505 13.5467 83.9101 12.0903 85.8341 12.0903C87.7593 12.0903 89.3182 13.547 89.3182 15.3416C89.3182 17.1376 87.7593 18.5934 85.8347 18.5934ZM85.8347 8.97385C82.0932 8.97385 79.0589 11.8063 79.0589 15.2976C79.0589 18.7905 82.0932 21.6214 85.8344 21.6214C89.5739 21.6214 92.6082 18.7905 92.6082 15.2976C92.6082 11.8063 89.5739 8.97385 85.8341 8.97385" fill="black"/>
</svg>
