<svg width="24" height="24" viewBox="0 0 24 24" fill="none" xmlns="http://www.w3.org/2000/svg">
<path d="M12.5303 20.864L20.1271 13.2672C21.9937 11.4006 22.2691 8.32976 20.5027 6.36811C20.0602 5.87533 19.522 5.47786 18.9208 5.19997C18.3197 4.92207 17.6682 4.76956 17.0062 4.75176C16.3441 4.73396 15.6854 4.85123 15.0702 5.09642C14.455 5.34161 13.8962 5.70957 13.4279 6.17786L12 7.60571L10.7672 6.3729C8.9006 4.5063 5.82976 4.23091 3.86811 5.99735C3.37533 6.43981 2.97786 6.97804 2.69997 7.57919C2.42207 8.18034 2.26956 8.83181 2.25176 9.49384C2.23396 10.1559 2.35123 10.8146 2.59642 11.4298C2.84161 12.045 3.20957 12.6038 3.67786 13.0721L11.4697 20.864C11.6103 21.0046 11.8011 21.0836 12 21.0836C12.1989 21.0836 12.3897 21.0046 12.5303 20.864V20.864Z" stroke="#1F3238" stroke-linecap="round" stroke-linejoin="round"/>
</svg>
