<svg width="211" height="56" viewBox="0 0 211 56" fill="none" xmlns="http://www.w3.org/2000/svg">
<path d="M109.197 10.5578H101.575C101.375 10.5578 101.214 10.7194 101.214 10.9197V32.1291H95.3171C93.9347 32.1291 92.779 31.6441 91.7802 30.6453C90.7814 29.6465 90.2964 28.5005 90.2964 27.1422V10.9197C90.2964 10.7194 90.1348 10.5578 89.9345 10.5578H82.3131C82.1128 10.5578 81.9512 10.7194 81.9512 10.9197V29.1012C81.9512 31.9698 83.0755 34.4138 85.2902 36.3657C87.3989 38.2113 89.9611 39.1474 92.9069 39.1474H109.199C109.4 39.1474 109.561 38.9858 109.561 38.7855V10.9197C109.561 10.7194 109.4 10.5578 109.199 10.5578H109.197Z" fill="black"/>
<path d="M126.788 16.8866H120.076C118.143 16.8866 116.302 17.7575 114.609 19.4729C112.915 21.1883 112.056 23.0822 112.056 25.1016V38.7836C112.056 38.9838 112.218 39.1455 112.418 39.1455H119.76C119.96 39.1455 120.122 38.9838 120.122 38.7836V26.7132C120.122 25.8784 120.389 25.2174 120.937 24.689C121.49 24.1582 122.112 23.9001 122.836 23.9001H126.788C126.988 23.9001 127.15 23.7384 127.15 23.5382V17.246C127.15 17.0458 126.988 16.8842 126.788 16.8842V16.8866Z" fill="black"/>
<path d="M129.779 45.0781V10.9201H144.325C148.334 10.9201 151.69 12.2615 154.395 14.942C157.099 17.6224 158.45 20.9446 158.45 24.9061C158.45 28.6119 157.169 31.852 154.605 34.6266C152.04 37.4011 148.906 38.7883 145.2 38.7883H139.082V32.4962H143.244C145.294 32.4962 146.974 31.8665 148.279 30.6071C149.7 29.2319 150.412 27.3332 150.412 24.9085C150.412 22.6937 149.683 20.8577 148.226 19.4029C146.769 17.9457 145.039 17.2171 143.034 17.2171H137.405V45.0829H129.784L129.779 45.0781Z" fill="#72F2C1"/>
<path d="M137.401 45.4399H129.779C129.579 45.4399 129.417 45.2783 129.417 45.078V10.9201C129.417 10.7198 129.579 10.5582 129.779 10.5582H144.325C148.415 10.5582 151.886 11.9454 154.649 14.6838C157.411 17.4221 158.811 20.8625 158.811 24.906C158.811 28.689 157.484 32.0426 154.868 34.8726C152.246 37.7099 148.991 39.1502 145.198 39.1502H139.08C138.88 39.1502 138.718 38.9885 138.718 38.7883V32.4962C138.718 32.2959 138.88 32.1343 139.08 32.1343H143.242C145.186 32.1343 146.796 31.5335 148.026 30.3465C149.367 29.0485 150.048 27.2198 150.048 24.9085C150.048 22.8047 149.348 21.0386 147.968 19.6586C146.588 18.2786 144.928 17.5789 143.032 17.5789H137.765V45.0828C137.765 45.2831 137.604 45.4447 137.403 45.4447L137.401 45.4399ZM130.141 44.7161H137.039V17.2122C137.039 17.0119 137.201 16.8503 137.401 16.8503H143.03C145.124 16.8503 146.957 17.6199 148.477 19.1423C149.997 20.6622 150.769 22.602 150.769 24.906C150.769 27.42 150.014 29.4249 148.525 30.8652C147.155 32.1849 145.377 32.8556 143.239 32.8556H139.44V38.424H145.196C148.779 38.424 151.855 37.0633 154.335 34.3804C156.823 31.6879 158.084 28.5009 158.084 24.906C158.084 21.0627 156.755 17.796 154.135 15.1976C151.512 12.5992 148.212 11.282 144.32 11.282H130.136V44.7161H130.141Z" fill="black"/>
<path d="M184.775 17.2483V38.7858H177.433V23.5428H173.377C172.048 23.5428 170.948 23.9554 170.074 24.7781C169.201 25.6032 168.762 26.6648 168.762 27.9652C168.762 29.2656 169.211 30.3175 170.108 31.186C171.006 32.057 172.118 32.4913 173.447 32.4913H175.754V38.7834H171.242C168.468 38.7834 166.021 37.6663 163.901 35.4322C161.78 33.1982 160.718 30.6842 160.718 27.8928C160.718 25.1014 161.727 22.5995 163.744 20.4595C165.761 18.3195 168.236 17.2483 171.172 17.2483H184.772H184.775Z" fill="#72F2C1"/>
<path d="M184.775 39.1478H177.434C177.233 39.1478 177.072 38.9862 177.072 38.7859V23.9049H173.378C172.135 23.9049 171.134 24.2764 170.321 25.0436C169.515 25.8036 169.124 26.759 169.124 27.9677C169.124 29.1764 169.53 30.1222 170.36 30.9304C171.194 31.7411 172.203 32.1343 173.448 32.1343H175.754C175.955 32.1343 176.116 32.296 176.116 32.4962V38.7884C176.116 38.9886 175.955 39.1502 175.754 39.1502H171.243C168.379 39.1502 165.819 37.9849 163.638 35.6857C161.462 33.3937 160.357 30.7736 160.357 27.8978C160.357 25.0219 161.406 22.4163 163.479 20.216C165.556 18.0084 168.145 16.8914 171.173 16.8914H184.773C184.973 16.8914 185.135 17.053 185.135 17.2533V38.7908C185.135 38.991 184.973 39.1527 184.773 39.1527L184.775 39.1478ZM177.795 38.424H184.413V17.6103H171.175C168.355 17.6103 165.945 18.6526 164.01 20.7081C162.067 22.7685 161.083 25.186 161.083 27.8953C161.083 30.6047 162.121 33.0318 164.166 35.1863C166.205 37.3359 168.589 38.424 171.245 38.424H175.395V32.8557H173.45C172.029 32.8557 170.823 32.3828 169.86 31.4467C168.895 30.5106 168.403 29.3381 168.403 27.9653C168.403 26.5925 168.883 25.4079 169.829 24.5153C170.77 23.6298 171.964 23.1811 173.38 23.1811H177.436C177.636 23.1811 177.798 23.3427 177.798 23.543V38.424H177.795Z" fill="black"/>
<path d="M202.841 10.92V17.2121H195.15C192.959 17.2121 191.21 16.7007 189.905 15.6729C188.505 14.5534 187.806 12.9683 187.806 10.9176H202.839L202.841 10.92ZM187.806 19.0313H195.147V28.9254C195.147 29.7192 195.497 30.5105 196.197 31.3019C196.896 32.0956 197.654 32.4913 198.469 32.4913H202.841V17.2121H210.183V38.7834H197.106C194.73 38.7834 192.607 37.9921 190.744 36.407C188.785 34.7278 187.808 32.747 187.808 30.4623V19.0288L187.806 19.0313Z" fill="#72F2C1"/>
<path d="M210.182 39.1477H197.105C194.649 39.1477 192.43 38.3177 190.509 36.6844C188.476 34.9425 187.445 32.8483 187.445 30.4646V19.0312C187.445 18.831 187.607 18.6693 187.807 18.6693H195.149C195.349 18.6693 195.511 18.831 195.511 19.0312V28.9254C195.511 29.6226 195.834 30.344 196.469 31.063C197.101 31.7819 197.757 32.1294 198.471 32.1294H202.481V17.574H195.151C192.886 17.574 191.047 17.0312 189.684 15.9575C188.2 14.7705 187.448 13.0744 187.448 10.9176C187.448 10.7173 187.609 10.5557 187.81 10.5557H202.843C203.043 10.5557 203.205 10.7173 203.205 10.9176V16.8478H210.184C210.385 16.8478 210.546 17.0094 210.546 17.2097V38.781C210.546 38.9812 210.385 39.1429 210.184 39.1429L210.182 39.1477ZM188.167 19.3931V30.4646C188.167 32.6288 189.112 34.5347 190.977 36.1343C192.765 37.6543 194.826 38.4239 197.105 38.4239H209.82V17.5764H203.202V32.4937C203.202 32.6939 203.041 32.8556 202.84 32.8556H198.469C197.547 32.8556 196.693 32.4141 195.926 31.5431C195.171 30.6866 194.787 29.806 194.787 28.9254V19.3931H188.169H188.167ZM188.176 11.2819C188.251 13.0551 188.893 14.4014 190.131 15.393C191.361 16.3604 193.05 16.8526 195.149 16.8526H202.478V11.2843H188.176V11.2819Z" fill="black"/>
<path d="M52.7707 5.36382C52.7514 5.23113 52.6621 5.12015 52.5391 5.07431L46.5799 2.85952C46.4689 2.8185 46.3434 2.83298 46.2469 2.90295L38.804 8.12387C38.2394 7.55931 36.6857 5.99111 35.8919 5.10085C33.2935 2.1864 30.6059 -0.831799 26.157 0.210456C26.1473 0.210456 26.1377 0.215281 26.128 0.217694C25.0689 0.557874 23.9711 0.992147 22.8469 1.5181C22.6949 1.60013 22.5405 1.67251 22.3619 1.74971C18.3401 3.71359 14.0408 6.84759 10.2578 10.5751C5.16473 15.5909 1.45652 21.2075 0.332241 25.6058C0.160945 26.2741 0.0547894 26.9062 0.0186 27.4852C-0.0923807 29.133 0.293639 30.5082 1.16701 31.577C2.01867 32.6168 3.31666 33.3672 5.02239 33.8014C5.78478 33.9969 6.61231 34.1247 7.47603 34.1826C11.2663 34.4384 15.6404 33.2803 19.8793 32.1609C21.7708 31.659 23.7251 31.1427 25.5635 30.7784C25.5973 30.7712 25.631 30.7591 25.66 30.7422C28.6203 30.1125 30.5769 30.2066 31.4624 30.3152L25.5683 38.4144C25.5321 38.4651 25.508 38.523 25.5008 38.5833L25.4815 38.7401C25.4646 38.8776 25.5297 39.0151 25.6455 39.0899C25.7058 39.1285 25.7734 39.1478 25.8409 39.1478C25.9085 39.1478 25.9736 39.1285 26.0315 39.0923L37.9161 31.688C38.0826 31.5842 38.1357 31.3671 38.0368 31.1982L31.9738 20.8191L52.6235 5.70642C52.7321 5.6268 52.7876 5.49652 52.7683 5.36382H52.7707Z" fill="black"/>
<path d="M63.8622 16.2182C63.8622 16.2182 63.8525 16.2014 63.8477 16.1917C63.0708 14.8985 62.0744 13.9817 60.7981 13.3907C59.8186 12.9371 58.6919 12.9419 57.7076 13.4003C57.7003 13.4051 57.6907 13.4075 57.6834 13.4124L41.1015 22.7613C40.935 22.8554 40.8698 23.0605 40.9519 23.2318L45.7361 33.3648L40.5731 34.6411C40.4525 34.67 40.356 34.7617 40.3173 34.8775C40.2787 34.9957 40.3029 35.126 40.3825 35.2201C42.1196 37.3311 43.6371 40.0526 45.2439 42.9308C47.3767 46.7548 49.5842 50.7091 52.3998 53.2569C53.0536 53.848 53.7195 54.3522 54.3781 54.7599C55.7147 55.5851 57.0079 56 58.2287 56C58.3734 56 58.5182 55.9952 58.6605 55.9831C60.0406 55.8697 61.3 55.1918 62.4049 53.971C62.8006 53.5343 63.1818 53.018 63.5389 52.439C65.9201 48.5764 67.3846 42.0044 67.4546 34.8582C67.5245 27.7844 66.2145 20.9928 63.8622 16.2207V16.2182Z" fill="black"/>
<path d="M28.5769 12.0203L26.2294 11.0239L27.2259 8.67639C27.6553 7.66309 27.1776 6.48332 26.1667 6.05387C25.1534 5.62442 23.9736 6.09971 23.5442 7.11301L22.5478 9.4605L20.2003 8.46408C19.1894 8.03463 18.0072 8.51233 17.5778 9.52564C17.1483 10.5389 17.626 11.7187 18.6369 12.1482L20.9844 13.1446L19.988 15.4921C19.5585 16.5054 20.0362 17.6851 21.0471 18.1146C22.0604 18.544 23.2402 18.0663 23.6696 17.0554L24.6661 14.708L27.0135 15.7044C28.0268 16.1338 29.2066 15.6561 29.6361 14.6428C30.0655 13.6295 29.5878 12.4497 28.5769 12.0203Z" fill="#72F2C1"/>
<path d="M62.0041 26.6624C60.7713 26.1389 59.343 26.7179 58.8194 27.9483C58.5661 28.5467 58.5589 29.2053 58.8026 29.8085C59.0462 30.4092 59.507 30.8821 60.1054 31.1354C60.4094 31.2657 60.7327 31.3308 61.0535 31.3308C61.3744 31.3308 61.6687 31.2705 61.9631 31.1523C62.5638 30.9086 63.0367 30.4478 63.29 29.8495C63.8136 28.6166 63.237 27.1883 62.0041 26.6648V26.6624Z" fill="#72F2C1"/>
<path d="M60.7569 23.5769C61.2804 22.344 60.7038 20.9158 59.471 20.3922C58.2381 19.8687 56.8098 20.4453 56.2863 21.6782C56.033 22.2741 56.0281 22.9351 56.2694 23.5359C56.5131 24.1366 56.9763 24.6095 57.5722 24.8628C57.8762 24.9931 58.1995 25.0582 58.5204 25.0582C58.8413 25.0582 59.1356 24.9979 59.4299 24.8797C60.0307 24.636 60.5036 24.1752 60.7569 23.5769Z" fill="#72F2C1"/>
<path d="M55.7312 29.1957C55.1328 28.9424 54.4742 28.9376 53.871 29.1788C53.2703 29.4225 52.7974 29.8857 52.5441 30.4816C52.2908 31.08 52.286 31.7386 52.5272 32.3418C52.7709 32.9425 53.2341 33.413 53.83 33.6663C54.1364 33.7966 54.4573 33.8617 54.7782 33.8617C55.0991 33.8617 55.3934 33.8014 55.6878 33.6832C56.2885 33.4395 56.759 32.9763 57.0147 32.3804C57.268 31.782 57.2753 31.1234 57.0316 30.5202C56.7879 29.9195 56.3271 29.449 55.7288 29.1957H55.7312Z" fill="#72F2C1"/>
<path d="M54.4833 26.1101C54.7366 25.5142 54.7438 24.8531 54.5002 24.2524C54.2565 23.6516 53.7933 23.1812 53.1973 22.9254C52.6014 22.6721 51.9404 22.6673 51.3396 22.9086C50.7389 23.1522 50.266 23.6155 50.0151 24.2114C49.4916 25.4442 50.0682 26.8725 51.301 27.396C51.605 27.5263 51.9283 27.5915 52.2492 27.5915C52.5701 27.5915 52.8644 27.5312 53.1587 27.4129C53.7595 27.1693 54.2299 26.706 54.4833 26.1101Z" fill="#72F2C1"/>
<path d="M42.0271 32.3948L36.9823 22.0133L53.2241 11.5714L52.5944 6.79928L52.4111 5.41443L45.5713 10.4206L31.4984 20.7177L37.7254 31.3791L25.8408 38.7834L42.0271 32.3948Z" fill="#72F2C1"/>
<path d="M25.8415 39.1454C25.7088 39.1454 25.5809 39.0706 25.5182 38.9452C25.4338 38.7787 25.4917 38.5736 25.6509 38.4747L37.2363 31.2562L31.1855 20.8988C31.0914 20.7395 31.1348 20.5344 31.2844 20.4235L52.197 5.11777C52.3008 5.04298 52.4359 5.02609 52.5541 5.07676C52.6723 5.12742 52.7543 5.23599 52.7712 5.36145L53.5819 11.5185C53.6012 11.6584 53.536 11.7935 53.4178 11.8707L37.4486 22.1388L42.3511 32.2333C42.3945 32.3249 42.3993 32.4287 42.3632 32.5228C42.327 32.6169 42.2522 32.6917 42.1581 32.7279L25.9742 39.1165C25.9308 39.1334 25.8849 39.143 25.8415 39.143V39.1454ZM31.9768 20.8167L38.0397 31.1958C38.1387 31.3647 38.0856 31.5819 37.9191 31.6856L29.4146 36.9861L41.5308 32.2019L36.6573 22.1702C36.5777 22.0061 36.6332 21.8059 36.7876 21.707L52.834 11.3906L52.1319 6.06594L31.9744 20.8167H31.9768Z" fill="black"/>
</svg>
