<svg width="74" height="74" viewBox="0 0 74 74" fill="none" xmlns="http://www.w3.org/2000/svg">
<path d="M61.0187 46.0342C54.667 52.355 45.5712 54.2975 37.5853 51.8L23.0628 66.2917C22.0145 67.3708 19.9487 68.0183 18.4687 67.8025L11.747 66.8775C9.52701 66.5692 7.46118 64.4725 7.12202 62.2525L6.19702 55.5308C5.98118 54.0508 6.69035 51.985 7.70785 50.9367L22.1995 36.445C19.7328 28.4283 21.6445 19.3325 27.9962 13.0117C37.092 3.91583 51.8612 3.91583 60.9879 13.0117C70.1145 22.1075 70.1145 36.9383 61.0187 46.0342Z" stroke="#4FCA9C" stroke-width="1.5" stroke-miterlimit="10" stroke-linecap="round" stroke-linejoin="round"/>
<path d="M21.2441 53.9275L28.3358 61.0192" stroke="#4FCA9C" stroke-width="1.5" stroke-miterlimit="10" stroke-linecap="round" stroke-linejoin="round"/>
<path d="M44.708 33.9167C47.2623 33.9167 49.333 31.846 49.333 29.2917C49.333 26.7374 47.2623 24.6667 44.708 24.6667C42.1537 24.6667 40.083 26.7374 40.083 29.2917C40.083 31.846 42.1537 33.9167 44.708 33.9167Z" stroke="#4FCA9C" stroke-width="1.5" stroke-linecap="round" stroke-linejoin="round"/>
</svg>
