<svg width="74" height="74" viewBox="0 0 74 74" fill="none" xmlns="http://www.w3.org/2000/svg">
<path d="M28.2429 33.5158C27.9346 33.485 27.5646 33.485 27.2254 33.5158C19.8871 33.2692 14.0596 27.2567 14.0596 19.8567C14.0596 12.3025 20.1646 6.16666 27.7496 6.16666C35.3037 6.16666 41.4396 12.3025 41.4396 19.8567C41.4087 27.2567 35.5812 33.2692 28.2429 33.5158Z" stroke="#4FCA9C" stroke-width="1.5" stroke-linecap="round" stroke-linejoin="round"/>
<path d="M50.5971 12.3333C56.5788 12.3333 61.3888 17.1742 61.3888 23.125C61.3888 28.9525 56.7638 33.7008 50.998 33.9167C50.7513 33.8858 50.4738 33.8858 50.1963 33.9167" stroke="#4FCA9C" stroke-width="1.5" stroke-linecap="round" stroke-linejoin="round"/>
<path d="M12.8267 44.8933C5.36505 49.8883 5.36505 58.0283 12.8267 62.9925C21.3059 68.6658 35.2117 68.6658 43.6909 62.9925C51.1526 57.9975 51.1526 49.8575 43.6909 44.8933C35.2426 39.2508 21.3367 39.2508 12.8267 44.8933Z" stroke="#4FCA9C" stroke-width="1.5" stroke-linecap="round" stroke-linejoin="round"/>
<path d="M56.5479 61.6667C58.7679 61.2042 60.8645 60.31 62.5912 58.9842C67.4012 55.3767 67.4012 49.4258 62.5912 45.8183C60.8953 44.5233 58.8295 43.66 56.6404 43.1667" stroke="#4FCA9C" stroke-width="1.5" stroke-linecap="round" stroke-linejoin="round"/>
</svg>
