<svg width="74" height="74" viewBox="0 0 74 74" fill="none" xmlns="http://www.w3.org/2000/svg">
<path d="M32.3446 6.87581L16.9588 12.6416C13.413 13.9675 10.5146 18.1608 10.5146 21.9533V44.8624C10.5146 48.5007 12.9197 53.2799 15.8488 55.4691L29.1071 65.3666C33.4546 68.635 40.6079 68.635 44.9554 65.3666L58.2138 55.4691C61.143 53.2799 63.5479 48.5007 63.5479 44.8624V21.9533C63.5479 18.1608 60.6496 13.9675 57.1038 12.6416L41.718 6.87581C39.0971 5.91998 34.9038 5.91998 32.3446 6.87581Z" stroke="#4FCA9C" stroke-width="1.5" stroke-linecap="round" stroke-linejoin="round"/>
<path d="M37.0004 33.67C36.877 33.67 36.7228 33.67 36.5995 33.67C33.7012 33.5775 31.3887 31.1725 31.3887 28.2433C31.3887 25.2525 33.8245 22.8167 36.8154 22.8167C39.8062 22.8167 42.2421 25.2525 42.2421 28.2433C42.2112 31.2033 39.8987 33.5775 37.0004 33.67Z" stroke="#4FCA9C" stroke-width="1.5" stroke-linecap="round" stroke-linejoin="round"/>
<path d="M30.8645 42.3034C27.9045 44.2767 27.9045 47.5142 30.8645 49.4875C34.2254 51.7383 39.7445 51.7383 43.1054 49.4875C46.0654 47.5142 46.0654 44.2767 43.1054 42.3034C39.7754 40.0526 34.2562 40.0526 30.8645 42.3034Z" stroke="#4FCA9C" stroke-width="1.5" stroke-linecap="round" stroke-linejoin="round"/>
</svg>
