<svg width="539" height="450" viewBox="0 0 539 450" fill="none" xmlns="http://www.w3.org/2000/svg">
<path d="M175.896 316.942C175.896 324.472 169.792 330.577 162.261 330.577C154.731 330.577 148.626 336.682 148.626 344.212V347.971C148.626 357.578 140.838 365.365 131.232 365.365H115.413C105.807 365.365 98.0189 357.578 98.0189 347.971C98.0189 338.365 90.2312 330.577 80.6246 330.577H26.283C12.3196 330.577 1 319.257 1 305.294C1 299.959 2.68737 294.761 5.82067 290.444L76.7281 192.738C80.8785 187.019 87.5172 183.635 94.5835 183.635C112.458 183.635 122.912 203.777 112.625 218.394L76.4654 269.772C70.5329 278.202 76.562 289.817 86.8696 289.817C93.8961 289.817 99.5922 284.121 99.5922 277.095V274.37C99.5922 265.839 106.508 258.923 115.039 258.923H133.179C141.71 258.923 148.626 265.839 148.626 274.37V276.182C148.626 283.713 154.731 289.817 162.261 289.817C169.792 289.817 175.896 295.922 175.896 303.452V316.942Z" fill="white"/>
<path d="M267.46 369C251.727 369 237.742 365.279 225.506 357.837C213.269 350.394 203.655 339.577 196.662 325.385C189.845 311.019 186.436 294.058 186.436 274.5C186.436 254.942 189.845 238.067 196.662 223.875C203.655 209.51 213.269 198.606 225.506 191.163C237.742 183.721 251.727 180 267.46 180C283.018 180 296.915 183.721 309.152 191.163C321.388 198.606 330.915 209.51 337.733 223.875C344.725 238.067 348.221 254.942 348.221 274.5C348.221 294.058 344.725 311.019 337.733 325.385C330.915 339.577 321.388 350.394 309.152 357.837C296.915 365.279 283.018 369 267.46 369ZM267.46 326.942C276.2 326.942 283.105 322.788 288.175 314.481C293.419 306 296.041 292.673 296.041 274.5C296.041 256.327 293.419 243.087 288.175 234.779C283.105 226.298 276.2 222.058 267.46 222.058C258.545 222.058 251.465 226.298 246.221 234.779C241.151 243.087 238.616 256.327 238.616 274.5C238.616 292.673 241.151 306 246.221 314.481C251.465 322.788 258.545 326.942 267.46 326.942Z" fill="white"/>
<path d="M539 316.942C539 324.472 532.895 330.577 525.365 330.577C517.834 330.577 511.73 336.682 511.73 344.212V347.971C511.73 357.578 503.942 365.365 494.336 365.365H478.517C468.91 365.365 461.123 357.578 461.123 347.971C461.123 338.365 453.335 330.577 443.728 330.577H389.387C375.423 330.577 364.104 319.257 364.104 305.294C364.104 299.959 365.791 294.761 368.924 290.444L439.832 192.738C443.982 187.019 450.621 183.635 457.687 183.635C475.561 183.635 486.016 203.777 475.729 218.394L439.569 269.772C433.637 278.202 439.666 289.817 449.973 289.817C457 289.817 462.696 284.121 462.696 277.095V274.37C462.696 265.839 469.612 258.923 478.143 258.923H496.283C504.814 258.923 511.73 265.839 511.73 274.37V276.182C511.73 283.713 517.834 289.817 525.365 289.817C532.895 289.817 539 295.922 539 303.452V316.942Z" fill="white"/>
<g clip-path="url(#clip0_33_3363)">
<path d="M43.6349 171.633C46.4464 160.198 51.1512 149.844 56.9929 139.917C71.7891 115.59 87.8489 91.1139 110.675 73.5806C117.561 68.3847 124.899 63.9558 132.898 60.7073C135.165 59.7868 136.874 58.529 138.259 56.4335C142.822 50.2154 146.836 42.8804 152.154 37.4297C157.997 35.1908 162.484 30.4185 168.259 28.3909C177.521 25.9514 188.715 21.53 197.486 27.5735C206.926 34.049 216.338 40.5623 225.618 47.2658C228.87 49.6127 230.575 52.9833 229.299 57.1981C227.703 63.0165 232.494 65.7693 227.428 71.6819C225.301 75.9523 219.658 79.7007 220.202 84.7395C221.637 88.2686 223.778 90.977 227.572 92.6984C236.552 96.7719 244.206 103.012 252.051 108.885C259.923 114.728 267.698 120.717 275.627 126.472C280.091 129.061 280.557 130.424 278.509 135.091C275.308 143.055 270.193 149.751 263.43 154.912C267.435 156.701 274.695 155.313 272.359 162.316C268.936 170.286 265.397 178.21 261.86 186.128C255.066 192.676 245.525 196.571 237.643 201.934C236.248 202.76 236.07 203.312 236.454 204.762C237.755 209.743 235.74 212.298 230.643 212.017C221.781 211.527 212.92 210.975 204.073 210.231C190.637 208.887 174.731 209.313 166.215 196.87C159.968 188.716 142.902 200.958 136.621 205.227C119.268 217.813 103.874 234.931 82.0334 239.328C69.5091 241.84 51.1474 239.226 47.4385 224.967C44.156 207.552 39.2645 189.217 43.6349 171.633ZM60.058 233.394C99.7329 248.165 122.695 198.882 157.407 190.527C167.583 186.83 169.345 197.946 177.03 200.585C163.062 181.326 177.864 170.126 170.065 171.636C123.828 175.966 92.4385 118.506 121.726 82.1122C172.097 19.5834 261.012 98.9595 205.019 156.311C203.512 157.76 203.451 158.269 205.537 159.06C227.054 167.278 228.119 193.856 209.935 206.464C216.697 207.887 223.946 207.449 230.872 208.191C232.071 208.266 233.322 208.334 232.806 206.499C230.027 196.321 226.699 186.199 224.895 175.805C251.929 183.746 235.499 188.049 265.429 162.135C268.189 159.985 264.759 159.716 262.948 159.291C255.612 157.433 248.198 155.72 241.586 151.872C239.968 150.502 230.996 145.194 236.077 143.523C247.711 139.355 259.323 135.143 270.985 131.044C272.464 130.509 273.45 129.949 271.46 128.468C254.846 116.897 240.063 102.2 221.304 94.0761C211.92 77.2637 200.135 64.1288 180.598 59.8934C117.329 45.8658 69.8984 115.999 49.0127 166.77C43.691 179.713 44.7261 229.588 60.058 233.394ZM154.611 166.691C221.969 180.969 244.83 81.5608 178.528 64.5429C111.341 50.3985 87.632 149.738 154.611 166.691ZM225.874 66.8701C226.751 64.0265 224.882 62.8947 223.211 61.7266C210.313 52.7305 197.393 43.7483 184.486 34.7628C180.887 32.2538 180.076 32.3818 177.571 35.9659C173.846 41.9421 168.733 47.2445 166.026 53.7524C184.89 55.2528 203.925 62.4309 215.569 78.0814C216.647 79.5287 217.268 79.4324 218.173 77.9955C220.653 74.3552 223.513 70.4307 225.874 66.8701ZM191.832 204.83C219.456 211.47 230.153 169.691 202.574 162.091C197.452 160.882 186.645 168.181 180.887 169.973C167.202 179.091 177.027 202.237 191.832 204.83ZM143.018 57.2803C148.818 55.6935 155.507 56.0657 160.799 53.4029C164.75 47.0246 170.226 41.1626 173.182 34.3655C167.814 35.3393 162.602 37.4654 157.343 39.0067C156.134 39.4087 154.794 40.1335 154.049 41.1219C150.491 46.5124 145.513 51.4173 143.012 57.2789L143.018 57.2803ZM249.905 151.605C263.278 154.833 269.867 144.397 274.159 134.301C268.376 135.406 262.932 138.266 257.261 139.978C251.797 142.266 245.514 143.054 240.553 146.304C242.759 149.033 247.861 150.357 249.899 151.604L249.905 151.605ZM192.496 29.1769C190.467 29.0616 188.851 29.8362 187.363 31.1764C190.868 35.8143 196.651 38.1719 201.148 41.7901C209.155 46.8815 216.392 53.5356 224.9 57.6579C226.607 54.6905 225.433 51.6128 222.587 49.8831C212.472 43.0814 202.817 35.6543 192.491 29.1695L192.496 29.1769ZM241.89 192.799C242.017 193.774 242.075 194.235 242.138 194.698C247.696 192.519 252.424 188.124 257.598 185.043C258.219 184.619 258.664 183.813 258.999 183.096C261.059 177.889 264.397 172.934 265.612 167.513C256.755 174.719 247.262 182.555 241.891 192.793L241.89 192.799ZM232.12 182.185C230.472 181.489 230.095 182.109 230.52 183.682C232.173 188.504 232.467 193.996 235.065 198.387C238.071 195.524 238.645 190.99 240.993 187.647C241.894 186.177 241.309 185.954 240.314 185.541C237.589 184.401 234.85 183.301 232.118 182.191L232.12 182.185Z" fill="#4A6871"/>
<path d="M325.413 428.597C308.107 433.745 298.383 433.302 288.968 416.376C279.142 396.32 288.274 374.987 292.339 354.715C301.2 304.017 287.174 333.441 270.089 306.171C264.79 297.436 260.045 288.368 255.088 279.434C253.176 275.214 245.895 266.923 253.878 265.134C256.398 264.593 256.847 263.41 257.079 260.96C257.793 253.449 258.765 245.941 260.19 238.545C263.631 231.04 271.145 225.251 276.329 218.773C280.615 213.26 283.4 219.624 286.714 222.629C287.278 217.133 297.402 195.379 304.365 200.38C321.121 210.463 339.472 218.007 354.755 230.405C357.306 232.621 360.538 231.778 363.535 231.657C366.444 228.45 368.46 223.845 370.757 220.068C372.685 215.348 377.678 216.325 381.185 213.861C384.157 211.388 387.777 210.698 391.118 212.605C401.231 219.74 423.158 226.975 426.481 238.761C428.403 244.711 429.98 250.732 429.728 257.063C429.438 260.011 428.433 263.052 428.578 265.999C428.781 268.884 428.333 271.398 426.85 273.888C423.408 279.677 420.076 285.536 416.794 291.419C416.545 314.489 411.118 337.278 399.293 357.472C381.596 389.908 363.924 419.726 325.416 428.585L325.413 428.597ZM267.914 266.528C263.8 267.173 259.683 267.805 255.568 268.457C253.6 268.765 254.007 269.869 254.68 271.102C257.899 276.595 260.459 282.566 264.054 287.793C267.125 268.332 289.943 258.202 304.965 272.437C307.059 274.422 306.974 274.383 308.227 271.658C321.676 234.608 367.77 226.669 395.466 252.914C386.141 241.111 371.686 235.362 356.688 235.43C355.701 235.448 354.564 234.939 353.724 234.348C339.003 222.521 321.749 214.783 305.394 205.556C304.129 204.867 303.487 204.996 303.63 206.644C304.06 211.524 304.424 216.414 304.854 221.294C305.438 227.906 305.997 234.518 306.691 241.118C307.254 246.376 299.359 240.768 297.425 239.785C290.603 235.207 286.376 228.132 280.828 222.354C276.601 230.421 275.078 239.959 271.775 248.53C270.32 252.754 282.027 258.883 283.981 263.169C278.865 265.04 273.235 265.322 267.914 266.528ZM299.714 424.048C306.951 431.844 317.441 426.055 326.043 424.422C345.47 419.834 360.932 409.404 372.656 393.223C397.919 357.255 428.837 306.518 403.092 263.638C433.229 330.591 338.256 374.795 308.55 307.291C306.621 301.289 303.771 316.764 281.818 313.27C286.429 317.785 295.961 316.032 297.415 323.735C305.553 356.557 271.041 396.436 299.712 424.054L299.714 424.048ZM404.066 299.888C417.392 237.26 325.862 216.925 310.075 277.711C295.941 339.093 388.175 362.819 404.066 299.888ZM378.545 219.502C373.55 218.07 371.554 227.694 368.706 230.745C367.643 232.455 368.233 233.013 369.959 233.399C387.656 237.361 400.716 250.021 409.141 265.641C413.585 260.316 416.498 253.679 420.15 247.749C420.982 246.137 421.639 244.548 419.211 243.161C405.696 235.473 391.994 227.124 378.542 219.488L378.545 219.502ZM268.792 284.882C263.391 304.908 288.632 317.853 302.72 304.835C304.484 303.255 306.66 301.557 306.077 298.679C304.93 293.002 304.992 287.303 305.638 281.612C305.872 279.534 305.221 278.015 303.955 276.619C293.881 263.967 272.125 269.008 268.804 284.885L268.792 284.882ZM424.921 269.633C424.707 263.604 423.991 257.535 422.472 251.748C418.37 256.981 415.454 263.195 411.971 268.886C410.548 272.455 413.981 282.015 415.439 285.77C419.169 280.893 421.854 274.972 424.926 269.64L424.921 269.633ZM290.448 218.881C290.602 219.004 290.756 219.128 290.91 219.252C289.71 227.723 294.678 235.549 302.574 238.395C303.02 227.675 301.113 216.557 299.799 205.929C296.045 209.464 293.681 214.733 290.448 218.881ZM387.983 215.047C386.022 215.319 380.556 216.882 384.595 218.988C388.543 221.325 392.495 223.645 396.454 225.959C404.292 230.009 411.462 235.916 419.764 238.779C421.109 236.094 418.891 233.608 416.997 232.092C407.332 226.208 397.856 220.683 387.984 215.041L387.983 215.047ZM273.824 230.928C273.824 230.928 273.782 230.918 273.759 230.907C274.129 229.39 275.282 227.916 274.777 226.336C271.696 228.324 269.933 232.054 267.131 234.472C261.645 239.966 261.775 248.762 261.56 255.972C269.697 250.706 270.642 239.489 273.822 230.934L273.824 230.928ZM261.127 263.793C265.983 263.263 270.641 262.226 275.449 261.413C276.66 261.188 276.521 260.374 275.769 259.645C273.6 258.255 270.704 252.837 267.968 254.45C265.778 257.52 261.689 259.969 261.121 263.792L261.127 263.793ZM397.953 254.971C397.501 255.043 397.311 255.075 397.121 255.107C397.808 256.388 398.14 257.928 399.615 258.527C400.414 257.305 398.373 256.045 397.953 254.971ZM400.995 259.401C400.791 259.657 400.4 260.014 400.455 260.102C401.215 260.877 401.907 263.421 403.005 263.088C402.334 261.735 402.291 260.394 400.995 259.401ZM395.389 253.546C395.976 254.281 396.058 254.855 396.965 254.471C396.552 253.695 396.517 253.302 395.389 253.546Z" fill="#4A6871"/>
<path d="M376.754 134.158C371.063 142.121 365.629 149.847 359.993 157.791C359.461 159.277 357.872 158.954 356.611 159.281C355.955 154.809 361.921 150.101 364.006 146.123C366.156 144.318 375.017 126.315 376.748 134.157L376.754 134.158Z" fill="#4A6871"/>
<path d="M174.589 294.821C173.56 292.59 173.365 291.631 175.107 290.122C181.515 283.416 187.947 276.721 194.396 270.056C196.582 267.496 198.9 269.551 196.985 272.111C189.424 279.712 183.082 288.205 174.589 294.821Z" fill="#4A6871"/>
<path d="M172.576 234.036C175.181 235.256 185.916 235.415 185.22 238.893C184.871 240.73 183.176 240.54 181.71 240.201C175.14 238.684 168.563 237.165 161.993 235.647C160.351 235.608 160.109 233.818 159.312 232.713C163.174 230.237 168.313 233.663 172.578 234.055L172.582 234.038L172.576 234.036Z" fill="#4A6871"/>
<path d="M376.521 191.327C376.178 190.851 375.644 190.103 375.11 189.361C378.512 186.174 394.939 188.707 400.712 188.054C403.843 187.843 403.634 191.447 400.882 191.682C392.728 191.646 384.69 191.518 376.527 191.329L376.521 191.327Z" fill="#4A6871"/>
<path d="M216.435 303.573C215.933 306.509 216.244 309.69 213.482 311.581C212.354 310.053 211.645 308.565 212.305 306.661C213.382 300.225 214.37 293.768 215.514 287.34C215.807 286.153 215.952 284.654 217.644 284.912C219.512 285.205 219.632 286.677 219.342 288.231C218.405 293.35 217.475 298.471 216.538 303.59C216.502 303.582 216.46 303.572 216.423 303.57L216.435 303.573Z" fill="#4A6871"/>
<path d="M323.315 123.089C323.868 120.53 323.824 118.785 326.038 117.467C329.813 120.496 324.744 133.983 324.374 138.968C324.166 139.923 323.047 141.386 322.352 141.39C320.456 141.387 320.719 139.701 320.924 138.379C321.723 133.146 322.559 127.915 323.321 123.09L323.315 123.089Z" fill="#4A6871"/>
<path d="M221.415 192.269C225.912 178.916 219.043 163.63 205.54 159.054C203.455 158.257 203.514 157.754 205.023 156.299C233.65 130.651 225.166 79.9258 190.154 64.6676C129.309 36.9018 79.662 121.924 133.82 161.668C126.449 165.256 121.952 172.745 117.884 179.632C106.066 204.325 84.9604 222.596 60.0607 233.388C44.5981 229.52 43.7887 179.514 49.0214 166.766C69.8629 116.022 117.363 45.8608 180.605 59.8948C200.144 64.1496 211.925 77.2457 221.311 94.0775C240.07 102.201 254.861 116.894 271.468 128.469C273.458 129.95 272.471 130.511 270.992 131.046C259.336 135.146 247.718 139.356 236.091 143.526C231.071 145.23 239.876 150.442 241.594 151.873C248.745 155.979 256.804 157.815 264.752 159.67C266.869 160.247 267.021 160.654 265.431 162.135C235.49 188.066 251.937 183.741 224.897 175.805C225.709 181.732 227.719 187.463 229.029 193.309C226.493 192.963 223.951 192.616 221.415 192.269Z" fill="#FDFCFD"/>
<path d="M154.612 166.691C87.6236 149.723 111.356 50.3893 178.535 64.5443C244.839 81.5816 221.955 180.979 154.612 166.691ZM189.716 147.661C194.38 148.915 197.293 147.903 199.175 145.185C202.887 139.811 206.448 134.301 209.742 128.661C217.407 115.559 188.958 115.333 196.962 104.34C211.184 86.0433 199.835 85.459 185.418 75.538C176.791 69.3891 172.05 79.5203 168.055 85.8443C163.812 93.8453 157.144 84.8943 152.035 82.5915C140.854 75.7644 136.524 92.2471 131.056 98.9183C124.392 108.176 135.405 112.619 141.889 117.018C148.728 121.221 140.048 127.743 138.021 132.51C130.45 143.728 148.7 148.681 155.389 154.269C164.152 159.743 168.437 148.125 172.59 142.399C176.566 135.8 185.492 146.3 189.728 147.663L189.716 147.661Z" fill="#72F2C1"/>
<path d="M60.0586 233.394C84.9583 222.602 106.066 204.325 117.877 179.631C121.951 172.745 126.441 165.261 133.819 161.667C144.85 168.214 157.002 172.963 170.067 171.63C173.093 171.408 173.063 171.457 172.134 174.333C168.717 183.969 171.604 192.507 177.038 200.58C169.335 197.937 167.609 186.829 157.415 190.523C122.725 198.864 99.7142 248.167 60.066 233.389L60.0586 233.394Z" fill="#C3E4D8"/>
<path d="M225.872 66.8702C223.512 70.4308 220.657 74.3566 218.172 77.9955C217.265 79.4385 216.651 79.5301 215.568 78.0815C203.917 62.4296 184.889 55.2529 166.024 53.7525C168.731 47.2446 173.845 41.9422 177.57 35.9659C180.07 32.3744 180.886 32.2538 184.485 34.7629C197.39 43.7543 210.305 52.7292 223.209 61.7267C224.887 62.8962 226.751 64.0206 225.872 66.8702Z" fill="#FDFCFD"/>
<path d="M191.832 204.83C177.019 202.241 167.203 179.085 180.886 169.973C186.694 168.161 197.389 160.906 202.574 162.091C230.151 169.697 219.46 211.477 191.832 204.83ZM191.387 198.623C212.764 204.475 221.279 173.286 200.727 168.066C183.125 162.001 170.834 194.417 191.387 198.623Z" fill="#66D8AD"/>
<path d="M143.019 57.2803C145.52 51.4187 150.499 46.5078 154.056 41.1233C154.8 40.1409 156.134 39.4147 157.348 39.0141C162.602 37.4715 167.82 35.3467 173.188 34.3729C170.227 41.1626 164.755 47.0319 160.805 53.4103C155.505 56.0777 148.829 55.7023 143.023 57.2877L143.019 57.2803Z" fill="#C3E4D8"/>
<path d="M249.906 151.605C247.861 150.363 242.765 149.041 240.56 146.305C245.521 143.055 251.798 142.266 257.268 139.979C262.939 138.268 268.378 135.406 274.167 134.302C269.876 144.392 263.285 154.834 249.912 151.606L249.906 151.605Z" fill="#C3E4D8"/>
<path d="M192.494 29.177C202.821 35.6618 212.471 43.0815 222.592 49.8845C225.433 51.6068 226.616 54.6993 224.905 57.6593C216.398 53.531 209.161 46.8769 201.153 41.7916C196.656 38.1734 190.873 35.8157 187.368 31.1779C188.856 29.8377 190.474 29.0571 192.5 29.1783L192.494 29.177Z" fill="#FDFCFD"/>
<path d="M221.412 192.269C223.948 192.616 226.49 192.963 229.026 193.309C230.285 197.706 231.564 202.101 232.805 206.499C233.32 208.334 232.069 208.266 230.87 208.191C223.944 207.449 216.695 207.887 209.933 206.464C210.198 206.083 210.375 205.563 210.736 205.337C215.818 202.216 218.898 197.478 221.412 192.269Z" fill="#C3E4D8"/>
<path d="M241.888 192.799C247.259 182.561 256.752 174.725 265.609 167.519C264.394 172.94 261.056 177.895 258.996 183.102C258.66 183.819 258.216 184.625 257.595 185.049C252.421 188.13 247.694 192.519 242.135 194.704C242.071 194.241 242.015 193.774 241.886 192.805L241.888 192.799Z" fill="#C3E4D8"/>
<path d="M232.119 182.185C234.855 183.303 237.595 184.402 240.314 185.535C241.309 185.948 241.9 186.173 240.994 187.641C238.646 190.984 238.073 195.512 235.065 198.381C232.468 193.99 232.172 188.504 230.52 183.676C230.094 182.109 230.472 181.483 232.12 182.179L232.119 182.185Z" fill="#C3E4D8"/>
<path d="M331.757 334.48C378.066 359.304 425.654 309.504 403.102 263.633C428.841 306.538 397.928 357.226 372.665 393.218C360.941 409.405 345.479 419.829 326.053 424.418C317.44 426.067 306.961 431.84 299.722 424.05C298.567 401.273 305.027 378.162 318.643 359.737C324.265 351.96 329.957 344.237 331.763 334.481L331.757 334.48Z" fill="#FDFCFD"/>
<path d="M404.067 299.888C388.167 362.83 295.933 339.078 310.078 277.705C325.876 216.922 417.396 237.274 404.067 299.888ZM375.098 316.129C384.948 319.11 387.586 305.914 392.558 300.055C398.621 291.598 388.428 287.181 382.367 283.322C373.309 277.079 396.584 266.032 383.546 257.615C376.372 254.319 366.197 241.751 359.472 251.6C351.179 265.099 352.346 264.385 339.357 255.948C329.209 249.921 324.867 266.508 319.989 272.565C315.006 280.685 325.549 284.375 330.806 288.22C336.822 292.164 328.886 298.17 327.131 302.545C320.598 313.095 336.686 316.982 342.914 322.166C350.497 327.349 354.828 318.258 358.198 312.755C360.856 308.588 362.379 308.271 366.662 310.983C369.259 312.756 373.152 314.948 375.091 316.134L375.098 316.129Z" fill="#72F2C1"/>
<path d="M267.916 266.528C273.238 265.316 278.867 265.04 283.983 263.169C282.023 258.882 270.331 252.769 271.775 248.536C275.073 239.964 276.595 230.426 280.828 222.36C286.382 228.139 290.603 235.219 297.425 239.791C299.393 240.769 307.14 246.387 306.691 241.124C305.997 234.524 305.438 227.912 304.854 221.3C304.425 216.42 304.06 211.53 303.631 206.65C303.488 205.002 304.129 204.873 305.395 205.562C321.751 214.783 339.004 222.527 353.725 234.354C354.565 234.945 355.696 235.453 356.683 235.435C371.681 235.367 386.136 241.115 395.46 252.919C367.746 226.669 321.689 234.617 308.222 271.663C306.97 274.382 307.06 274.428 304.961 272.436C295.631 263.274 281.058 263.988 271.619 272.542C270.381 270.535 269.142 268.533 267.904 266.525L267.916 266.528Z" fill="#FDFCFD"/>
<path d="M331.756 334.48C329.956 344.237 324.263 351.966 318.636 359.736C305.022 378.155 298.56 401.272 299.715 424.048C271.042 396.411 305.556 356.576 297.418 323.729C295.957 316.025 286.438 317.781 281.821 313.264C290.52 314.296 299.688 313.601 305.951 306.678C307.374 305.02 307.925 305.608 308.551 307.291C312.427 319.274 321.64 327.602 331.75 334.478L331.756 334.48Z" fill="#C3E4D8"/>
<path d="M378.548 219.502C392.005 227.139 405.702 235.487 419.217 243.175C423.915 245.786 416.711 252.416 415.539 255.715C413.391 259.009 411.963 262.874 409.148 265.648C400.731 250.024 387.657 237.367 369.966 233.407C368.24 233.021 367.652 232.456 368.713 230.752C371.566 227.678 373.545 218.1 378.546 219.508L378.548 219.502Z" fill="#FDFCFD"/>
<path d="M268.794 284.882C272.115 269.005 293.871 263.965 303.945 276.616C305.21 278.018 305.868 279.533 305.628 281.609C304.982 287.3 304.926 293.001 306.067 298.676C306.65 301.554 304.472 303.259 302.71 304.832C288.629 317.845 263.387 304.907 268.782 284.88L268.794 284.882ZM291.843 275.416C273.144 272.737 268.273 294.695 281.739 303.936C286.94 306.986 291.56 305.486 295.972 302.292C306.641 295.643 304.561 278.291 291.842 275.422L291.843 275.416Z" fill="#66D8AD"/>
<path d="M424.922 269.633C421.856 274.966 419.171 280.887 415.436 285.763C413.982 282.04 410.542 272.429 411.967 268.879C415.456 263.189 418.365 256.98 422.475 251.742C423.999 257.531 424.709 263.598 424.924 269.627L424.922 269.633Z" fill="#C3E4D8"/>
<path d="M290.448 218.881C293.681 214.733 296.053 209.46 299.799 205.929C301.113 216.557 303.014 227.674 302.574 238.395C294.679 235.543 289.71 227.723 290.91 219.252C290.756 219.128 290.602 219.005 290.448 218.881Z" fill="#C3E4D8"/>
<path d="M387.982 215.047C397.848 220.687 407.337 226.215 416.995 232.098C418.89 233.608 421.107 236.1 419.762 238.785C411.462 235.916 404.286 230.008 396.452 225.965C392.495 223.645 388.541 221.331 384.593 218.994C380.556 216.882 386.021 215.325 387.981 215.053L387.982 215.047Z" fill="#FDFCFD"/>
<path d="M267.913 266.528C269.151 268.536 270.39 270.537 271.628 272.545C267.281 276.795 265.774 282.224 264.059 287.794C260.462 282.574 257.904 276.597 254.683 271.11C254.01 269.876 253.603 268.773 255.572 268.464C259.687 267.813 263.805 267.175 267.917 266.535L267.913 266.528Z" fill="#C3E4D8"/>
<path d="M273.826 230.928C270.653 239.479 269.704 250.707 261.563 255.966C261.78 248.75 261.648 239.96 267.134 234.466C269.935 232.054 271.693 228.316 274.78 226.33C275.284 227.916 274.132 229.384 273.763 230.901C273.786 230.906 273.804 230.91 273.827 230.922L273.826 230.928Z" fill="#C3E4D8"/>
<path d="M261.127 263.793C261.688 259.975 265.777 257.526 267.973 254.457C270.71 252.844 273.599 258.261 275.774 259.652C276.526 260.381 276.667 261.189 275.454 261.42C270.647 262.227 265.988 263.27 261.132 263.801L261.127 263.793Z" fill="#C3E4D8"/>
<path d="M397.955 254.971C398.375 256.045 400.418 257.299 399.617 258.527C398.142 257.928 397.811 256.388 397.123 255.107C397.314 255.075 397.51 255.044 397.955 254.971Z" fill="#FDFCFD"/>
<path d="M400.995 259.401C402.285 260.393 402.334 261.735 403.005 263.088C401.912 263.428 401.214 260.883 400.455 260.102C400.4 260.014 400.791 259.657 400.995 259.401Z" fill="#FDFCFD"/>
<path d="M395.391 253.546C396.513 253.301 396.554 253.695 396.967 254.471C396.059 254.855 395.977 254.281 395.391 253.546Z" fill="#FDFCFD"/>
<path d="M189.716 147.661C185.485 146.305 176.557 135.785 172.578 142.396C168.43 148.13 164.138 159.753 155.377 154.266C148.686 148.691 130.443 143.707 138.009 132.507C140.016 127.748 148.738 121.204 141.878 117.015C135.411 112.62 124.369 108.171 131.051 98.9169C136.496 92.2342 140.867 75.7672 152.029 82.5901C157.134 84.8855 163.808 93.8632 168.05 85.8429C172.043 79.5248 176.793 69.3831 185.418 75.538C199.814 85.4728 211.206 86.0042 196.962 104.34C188.961 115.321 217.422 115.581 209.743 128.661C206.448 134.301 202.895 139.806 199.175 145.185C197.293 147.903 194.381 148.915 189.716 147.661ZM144.19 133.443C145.532 127.225 150.94 123.107 156.865 123.788C173.626 126.209 169.713 150.135 152.823 147.943C162.82 156.944 163.838 147.788 169.322 140.395C175.391 131.366 183.305 139.696 189.749 143.455C192.762 145.362 194.944 144.92 196.812 142.072C199.813 137.486 202.83 132.91 205.787 128.296C209.245 123.803 205.412 120.805 201.258 119.114C208.015 130.791 195.83 144.469 184.184 136.437C174.173 128.889 181.367 111.63 194.378 115.147C187.916 105.682 194.836 102.222 199.241 93.8172C200.53 91.7308 200.155 89.6702 198.262 88.3689C193.047 84.7801 187.713 81.347 182.334 78.0042C175.976 75.1859 173.879 84.4016 170.648 88.0451C167.937 93.2085 165.045 92.7929 159.725 92.7119C164.692 101.579 161.422 112.573 150.184 112.79C131.73 111.095 135.945 86.2415 154.022 88.6699C150.78 86.1425 145.965 82.0471 143.054 87.2529C140.033 91.8719 137.028 96.507 134.1 101.185C132.013 104.519 132.498 106.485 135.771 108.635C141.566 112.497 152.475 117.06 146.81 125.54C143.144 132.078 134.115 139.869 146.124 143.356C144.716 140.117 143.05 137.096 144.19 133.443ZM148.244 108.445C159.268 111.338 162.271 95.1164 152.092 92.6327C142.111 90.5732 137.705 106.073 148.244 108.445ZM183.464 124.546C180.792 135.76 196.498 139.067 199.462 128.771C202.06 118.782 185.755 113.811 183.464 124.546ZM163.615 137.595C166.088 126.997 150.527 123.339 147.939 133.943C145.561 144.563 161.206 148.107 163.615 137.595ZM158.65 91.7193C158.697 91.5157 158.587 91.4715 158.422 91.4208C158.423 91.5282 158.416 91.6401 158.416 91.7474C158.494 91.74 158.578 91.7281 158.656 91.7207L158.65 91.7193Z" fill="#4A6871"/>
<path d="M191.386 198.623C170.827 194.416 183.124 162.001 200.726 168.066C221.277 173.292 212.763 204.475 191.386 198.623ZM192.092 194.938C210.528 199.771 215.761 173.021 197.012 171.427C185.321 170.468 178.132 192.262 192.092 194.938Z" fill="#4A6871"/>
<path d="M375.099 316.129C373.167 314.945 369.268 312.751 366.671 310.978C362.388 308.261 360.864 308.584 358.206 312.75C354.838 318.248 350.496 327.355 342.916 322.16C336.677 316.998 320.61 313.073 327.134 302.539C328.866 298.178 336.845 292.15 330.809 288.214C325.545 284.368 315.003 280.671 319.991 272.559C324.851 266.498 329.222 249.923 339.354 255.941C352.442 264.495 351.209 264.948 359.468 251.593C366.21 241.728 376.352 254.332 383.543 257.608C396.58 266.056 373.289 277.062 382.364 283.314C388.418 287.172 398.635 291.595 392.554 300.048C387.588 305.914 384.946 319.097 375.101 316.123L375.099 316.129ZM333.091 303.436C333.242 303.383 333.392 303.335 333.543 303.282C335.14 296.776 342.259 292.833 348.654 295.546C361.102 301.796 354.794 318.383 341.452 317.149C350.004 324.491 351.49 316.175 355.905 309.999C361.138 300.795 369.535 309.003 375.686 312.55C381.832 316.587 386.57 301.642 389.983 297.808C392.913 293.527 388.809 290.34 384.731 289.575C392.088 301.031 378.704 314.357 368.122 304.968C359.242 296.043 369.098 282.161 380.526 286.661C368.047 275.63 391.255 267.254 381.867 260.69C377.536 257.829 373.151 255.037 368.722 252.324C365.901 250.594 364.032 251.045 362.199 253.769C358.347 259.205 355.597 267.753 347.322 265.431C353.817 275.761 343.066 287.841 332.319 281.921C321.753 275.135 328.714 259.191 341.022 261.517C340.164 257.509 333.506 257.081 331.45 260.498C328.618 264.87 325.901 269.32 323.169 273.753C321.477 276.497 321.795 278.09 324.491 279.955C330.27 283.996 340.846 288.255 334.9 296.752C331.875 301.389 324.366 310.295 334.141 311.909C334.23 309.066 333.411 306.254 333.099 303.431L333.091 303.436ZM374.17 304.297C383.973 306.416 387.092 291.634 377.353 289.51C368.065 287.504 364.625 302.262 374.17 304.297ZM340.012 265.017C330.159 262.621 326.724 277.545 336.296 279.876C346.098 281.919 349.879 267.706 340.012 265.017ZM342.57 312.961C352.542 315.687 355.565 300.882 346.061 298.529C336.401 296.393 333.018 310.603 342.57 312.961ZM383.539 288.404C383.531 287.948 383.318 287.804 382.89 287.775C382.943 288.229 382.971 288.544 383.539 288.404ZM335.201 312.804C335.346 312.913 335.416 312.992 335.516 312.776C335.377 312.668 335.3 312.593 335.201 312.804Z" fill="#4A6871"/>
<path d="M291.842 275.416C304.559 278.291 306.641 295.637 295.973 302.286C291.56 305.48 286.939 306.985 281.739 303.93C268.269 294.682 273.15 272.732 291.844 275.41L291.842 275.416ZM291.201 278.958C277.631 276.12 272.742 293.792 283.382 300.772C296.454 307.241 307.473 283.688 291.201 278.958Z" fill="#4A6871"/>
<path d="M144.196 133.444C143.055 137.097 144.723 140.112 146.129 143.357C134.109 139.837 143.151 132.099 146.815 125.541C152.481 117.055 141.577 112.499 135.776 108.636C132.503 106.487 132.018 104.52 134.105 101.187C137.033 96.5084 140.033 91.8719 143.059 87.2543C145.969 82.0545 150.786 86.1379 154.027 88.6713C135.95 86.2428 131.733 111.102 150.189 112.792C161.428 112.569 164.697 101.58 159.73 92.7133C165.062 92.797 167.93 93.2071 170.653 88.0465C173.879 84.3956 175.986 75.1947 182.339 78.0056C187.718 81.3484 193.052 84.7815 198.267 88.3703C200.154 89.6701 200.535 91.7322 199.247 93.8186C194.832 102.234 187.926 105.691 194.383 115.148C181.367 111.63 174.17 128.895 184.189 136.438C195.841 144.472 208.02 130.792 201.263 119.115C205.395 120.82 209.259 123.794 205.792 128.297C202.835 132.912 199.824 137.489 196.823 142.075C194.954 144.929 192.779 145.366 189.76 143.458C183.322 139.7 175.388 131.372 169.331 140.404C163.864 147.782 162.805 156.954 152.833 147.952C169.734 150.147 173.637 126.212 156.874 123.797C150.949 123.115 145.54 127.24 144.2 133.451L144.196 133.444ZM194.526 96.462C198.225 81.1326 174.399 75.8689 171.104 91.4175C168.327 106.714 190.581 111.659 194.526 96.462Z" fill="white"/>
<path d="M148.242 108.445C137.703 106.073 142.109 90.5732 152.096 92.634C162.275 95.1177 159.272 111.339 148.242 108.445Z" fill="#66D8AD"/>
<path d="M183.463 124.546C185.753 113.811 202.058 118.781 199.461 128.771C196.49 139.065 180.786 135.753 183.463 124.546Z" fill="white"/>
<path d="M163.613 137.595C161.202 148.113 145.557 144.569 147.936 133.943C150.52 123.332 166.087 126.991 163.613 137.595Z" fill="white"/>
<path d="M158.647 91.7193C158.57 91.7267 158.485 91.7386 158.408 91.746C158.408 91.6387 158.414 91.5267 158.414 91.4194C158.585 91.4715 158.693 91.5217 158.641 91.7179L158.647 91.7193Z" fill="white"/>
<path d="M192.092 194.938C178.131 192.262 185.321 170.468 197.012 171.427C215.765 173.028 210.515 199.768 192.092 194.938Z" fill="white"/>
<path d="M333.087 303.436C333.4 306.258 334.225 309.072 334.129 311.914C324.351 310.286 331.862 301.4 334.889 296.757C340.83 288.253 330.259 284.001 324.48 279.96C321.784 278.095 321.465 276.501 323.158 273.758C325.892 269.318 328.607 264.875 331.439 260.502C333.49 257.078 340.151 257.52 341.011 261.521C328.703 259.195 321.741 275.146 332.308 281.926C343.055 287.846 353.805 275.766 347.311 265.436C355.592 267.759 358.328 259.214 362.188 253.774C364.021 251.05 365.884 250.597 368.711 252.329C373.14 255.042 377.525 257.833 381.856 260.694C391.242 267.239 368.035 275.641 380.516 286.66C369.088 282.159 359.226 296.04 368.112 304.967C378.702 314.351 392.078 301.03 384.721 289.574C388.792 290.344 392.918 293.517 389.973 297.806C386.576 301.626 381.803 316.587 375.678 312.542C369.526 308.996 361.13 300.787 355.896 309.991C351.504 316.154 349.971 324.485 341.444 317.141C354.791 318.377 361.094 301.788 348.646 295.539C342.256 292.833 335.132 296.769 333.54 303.276C333.389 303.329 333.24 303.377 333.089 303.43L333.087 303.436ZM366.564 277.508C380.515 280.907 385.558 259.348 371.698 255.964C357.452 252.938 352.193 273.905 366.564 277.508Z" fill="white"/>
<path d="M374.17 304.297C364.624 302.262 368.065 287.504 377.352 289.511C387.091 291.634 383.973 306.416 374.17 304.297Z" fill="#66D8AD"/>
<path d="M340.009 265.017C349.876 267.706 346.095 281.919 336.293 279.876C326.722 277.545 330.156 262.621 340.009 265.017Z" fill="white"/>
<path d="M342.567 312.961C333.014 310.603 336.399 296.387 346.058 298.529C355.562 300.882 352.533 315.685 342.567 312.961Z" fill="white"/>
<path d="M383.538 288.404C382.971 288.538 382.943 288.223 382.89 287.769C383.318 287.798 383.531 287.942 383.538 288.404Z" fill="white"/>
<path d="M335.198 312.804C335.291 312.592 335.368 312.666 335.513 312.776C335.419 312.993 335.343 312.913 335.198 312.804Z" fill="white"/>
<path d="M291.201 278.958C307.485 283.691 296.449 307.239 283.383 300.772C272.744 293.786 277.625 276.118 291.201 278.958Z" fill="white"/>
<path d="M194.524 96.462C190.578 111.665 168.326 106.708 171.103 91.4115C174.397 75.8689 198.224 81.1266 194.524 96.462ZM184.53 85.7587C174.023 83.3824 170.688 99.2686 180.811 101.859C191.367 104.266 195.585 88.079 184.53 85.7587Z" fill="#4A6871"/>
<path d="M366.566 277.508C352.195 273.905 357.46 252.94 371.706 255.965C385.566 259.35 380.517 280.907 366.566 277.508ZM370.944 259.372C360.931 257.071 357.815 271.898 367.408 274.354C377.018 276.246 380.589 261.902 370.944 259.372Z" fill="#4A6871"/>
<path d="M184.529 85.7587C195.578 88.0776 191.36 104.265 180.81 101.859C170.693 99.27 174.029 83.3837 184.529 85.7587Z" fill="#72F2C1"/>
<path d="M370.945 259.372C380.591 261.902 377.019 276.246 367.403 274.352C357.81 271.897 360.932 257.071 370.945 259.372Z" fill="#72F2C1"/>
</g>
<defs>
<clipPath id="clip0_33_3363">
<rect width="397" height="370" fill="white" transform="translate(83.2734) rotate(13.0064)"/>
</clipPath>
</defs>
</svg>
