<svg xmlns="http://www.w3.org/2000/svg"   viewBox="0 0 50 50" width="20px" height="20px"><path fill="currentcolor" d="M 9 4 C 6.2504839 4 4 6.2504839 4 9 L 4 41 C 4 43.749516 6.2504839 46 9 46 L 41 46 C 43.749516 46 46 43.749516 46 41 L 46 9 C 46 6.2504839 43.749516 4 41 4 L 9 4 z M 9 6 L 41 6 C 42.668484 6 44 7.3315161 44 9 L 44 12.380859 C 43.266738 11.541629 42.201883 11 41 11 L 9 11 C 7.7981175 11 6.7332621 11.541629 6 12.380859 L 6 9 C 6 7.3315161 7.3315161 6 9 6 z M 15 17 C 15.553 17 16 17.448 16 18 C 16 22.962 20.037 27 25 27 C 29.963 27 34 22.962 34 18 C 34 17.448 34.447 17 35 17 C 35.553 17 36 17.448 36 18 C 36 24.065 31.065 29 25 29 C 18.935 29 14 24.065 14 18 C 14 17.448 14.447 17 15 17 z"/></svg> 