<svg width="34" height="34" viewBox="0 0 34 34" fill="none" xmlns="http://www.w3.org/2000/svg">
<path d="M2.83334 17.8642H26.9167" stroke="#509269" stroke-miterlimit="10" stroke-linecap="round" stroke-linejoin="round"/>
<path d="M26.9167 14.5633V24.6925C26.8742 28.73 25.7691 29.75 21.5616 29.75H8.18838C3.91004 29.75 2.83334 28.6875 2.83334 24.4658V14.5633C2.83334 10.7383 3.72584 9.50584 7.08334 9.30751C7.42334 9.29334 7.79171 9.27917 8.18838 9.27917H21.5616C25.84 9.27917 26.9167 10.3417 26.9167 14.5633Z" stroke="#509269" stroke-linecap="round" stroke-linejoin="round"/>
<path d="M31.1667 9.53417V19.4367C31.1667 23.2617 30.2742 24.4942 26.9167 24.6925V14.5633C26.9167 10.3417 25.84 9.27917 21.5616 9.27917H8.18838C7.79171 9.27917 7.42334 9.29333 7.08334 9.3075C7.12584 5.27 8.23088 4.25 12.4384 4.25H25.8116C30.09 4.25 31.1667 5.3125 31.1667 9.53417Z" stroke="#509269" stroke-linecap="round" stroke-linejoin="round"/>
<path d="M7.4375 25.2308H9.87412" stroke="#509269" stroke-miterlimit="10" stroke-linecap="round" stroke-linejoin="round"/>
<path d="M12.9058 25.2308H17.7792" stroke="#509269" stroke-miterlimit="10" stroke-linecap="round" stroke-linejoin="round"/>
</svg>
