<svg width="30" height="30" viewBox="0 0 30 30" fill="none" xmlns="http://www.w3.org/2000/svg">
<path d="M29.2 15C29.2 22.8 22.8 29.2 15 29.2C7.2 29.2 0.800003 22.8 0.800003 15C0.800003 7.19999 7.2 0.799988 15 0.799988C22.8 0.799988 29.2 7.19999 29.2 15Z" stroke="#AFC5BE" stroke-linecap="round" stroke-linejoin="round"/>
<path d="M17.7 15H10.6V10.2H17.7C19 10.2 20.1 11.3 20.1 12.6C20.1 13.9 19 15 17.7 15Z" stroke="#AFC5BE" stroke-linecap="round" stroke-linejoin="round"/>
<path d="M17.7 19.8H10.6V15H17.7C19 15 20.1 16.1 20.1 17.4C20.1 18.7 19 19.8 17.7 19.8Z" stroke="#AFC5BE" stroke-linecap="round" stroke-linejoin="round"/>
<path d="M12.9 7.89999V10.3" stroke="#AFC5BE" stroke-linecap="round" stroke-linejoin="round"/>
<path d="M12.9 19.8V22.2" stroke="#AFC5BE" stroke-linecap="round" stroke-linejoin="round"/>
<path d="M17.7 7.89999V10.3" stroke="#AFC5BE" stroke-linecap="round" stroke-linejoin="round"/>
<path d="M17.7 19.8V22.2" stroke="#AFC5BE" stroke-linecap="round" stroke-linejoin="round"/>
<path d="M26.5 15H29.2" stroke="#AFC5BE" stroke-linecap="round" stroke-linejoin="round"/>
<path d="M0.800003 15H3.4" stroke="#AFC5BE" stroke-linecap="round" stroke-linejoin="round"/>
<path d="M24.9 9.3L27.2 8" stroke="#AFC5BE" stroke-linecap="round" stroke-linejoin="round"/>
<path d="M2.8 22.1L5.1 20.8" stroke="#AFC5BE" stroke-linecap="round" stroke-linejoin="round"/>
<path d="M20.7 5.09999L22 2.79999" stroke="#AFC5BE" stroke-linecap="round" stroke-linejoin="round"/>
<path d="M7.90001 27.3L9.20001 25" stroke="#AFC5BE" stroke-linecap="round" stroke-linejoin="round"/>
<path d="M15 3.49999V0.799988" stroke="#AFC5BE" stroke-linecap="round" stroke-linejoin="round"/>
<path d="M15 29.2V26.6" stroke="#AFC5BE" stroke-linecap="round" stroke-linejoin="round"/>
<path d="M9.3 5.09999L8 2.79999" stroke="#AFC5BE" stroke-linecap="round" stroke-linejoin="round"/>
<path d="M22.1 27.3L20.8 25" stroke="#AFC5BE" stroke-linecap="round" stroke-linejoin="round"/>
<path d="M5.1 9.3L2.8 8" stroke="#AFC5BE" stroke-linecap="round" stroke-linejoin="round"/>
<path d="M27.2 22.1L24.9 20.8" stroke="#AFC5BE" stroke-linecap="round" stroke-linejoin="round"/>
</svg>
