<svg width="0" height="0" class="hidden" aria-hidden="true">
  <symbol fill="none" xmlns="http://www.w3.org/2000/svg" viewBox="0 0 24 24" id="user">
    <path d="M12 12C14.7614 12 17 9.76142 17 7C17 4.23858 14.7614 2 12 2C9.23858 2 7 4.23858 7 7C7 9.76142 9.23858 12 12 12Z" fill="currentColor" stroke-linecap="round" stroke-linejoin="round"></path>
    <path d="M20.59 22C20.59 18.13 16.74 15 12 15C7.26003 15 3.41003 18.13 3.41003 22" fill="currentColor" stroke-linecap="round" stroke-linejoin="round"></path>
  </symbol>
 
  <symbol fill="none" xmlns="http://www.w3.org/2000/svg" viewBox="0 0 20 20" id="tg"> 
    <g clip-path="url(#clip0_720_5008)"> 
      <path fill-rule="evenodd" clip-rule="evenodd" d="M20 10C20 15.5228 15.5228 20 10 20C4.47715 20 0 15.5228 0 10C0 4.47715 4.47715 0 10 0C15.5228 0 20 4.47715 20 10ZM10.3583 7.38244C9.38562 7.787 7.44169 8.62433 4.52649 9.89444C4.05311 10.0827 3.80513 10.2668 3.78255 10.4469C3.7444 10.7512 4.12551 10.8711 4.64448 11.0343C4.71507 11.0565 4.78821 11.0795 4.86319 11.1038C5.37378 11.2698 6.0606 11.464 6.41765 11.4717C6.74153 11.4787 7.10302 11.3452 7.50211 11.0711C10.2259 9.2325 11.6319 8.30317 11.7202 8.28314C11.7824 8.26901 11.8687 8.25123 11.9272 8.3032C11.9857 8.35518 11.9799 8.4536 11.9737 8.48C11.936 8.64095 10.44 10.0318 9.66584 10.7515C9.4245 10.9759 9.25331 11.135 9.21831 11.1714C9.13992 11.2528 9.06002 11.3298 8.98323 11.4038C8.50889 11.8611 8.15317 12.204 9.00292 12.764C9.41128 13.0331 9.73804 13.2556 10.064 13.4776C10.4201 13.7201 10.7752 13.9619 11.2346 14.2631C11.3516 14.3398 11.4634 14.4195 11.5723 14.4971C11.9866 14.7925 12.3589 15.0578 12.8187 15.0155C13.0859 14.9909 13.362 14.7397 13.5021 13.9903C13.8334 12.2193 14.4846 8.38205 14.6351 6.80081C14.6483 6.66228 14.6317 6.48498 14.6184 6.40715C14.6051 6.32932 14.5772 6.21842 14.4761 6.13633C14.3562 6.03911 14.1713 6.01861 14.0886 6.02007C13.7124 6.0267 13.1354 6.22735 10.3583 7.38244Z" fill="currentColor"></path>
    </g>
    <defs>
      <clipPath id="clip0_720_5008">
        <rect width="20" height="20" fill="white"></rect>
      </clipPath> 
    </defs>
  </symbol> 
 
  <symbol fill="none" xmlns="http://www.w3.org/2000/svg" viewBox="0 0 16 16" id="file">
    <path d="M14.5 13.5V5.41a1 1 0 0 0-.3-.7L9.8.29A1 1 0 0 0 9.08 0H1.5v13.5A2.5 2.5 0 0 0 4 16h8a2.5 2.5 0 0 0 2.5-2.5m-1.5 0v-7H8v-5H3v12a1 1 0 0 0 1 1h8a1 1 0 0 0 1-1M9.5 5V2.12L12.38 5zM5.13 5h-.62v1.25h2.12V5zm-.62 3h7.12v1.25H4.5zm.62 3h-.62v1.25h7.12V11z" clip-rule="evenodd" fill="currentColor" fill-rule="evenodd"></path>
  </symbol>


  <symbol fill="none" xmlns="http://www.w3.org/2000/svg" viewBox="0 0 20 20" id="vk">
    <path d="M18.5958 1.40417C17.1875 0 14.925 0 10.4167 0H9.58333C5.075 0 2.8125 0 1.40417 1.40417C-0.00416666 2.80833 1.44185e-07 5.075 1.44185e-07 9.58333V10.4167C1.44185e-07 14.925 9.93411e-08 17.1875 1.40417 18.5958C2.80833 20.0042 5.075 20 9.58333 20H10.4167C14.9417 20 17.2042 20 18.6125 18.5958C20.0208 17.1917 20 14.925 20 10.4167V9.58333C20 5.075 20 2.8125 18.5958 1.40417ZM14.35 14.4083C14.1321 13.6277 13.6884 12.9288 13.0746 12.3995C12.4608 11.8702 11.7042 11.5341 10.9 11.4333V14.4083H10.6417C6.08333 14.4083 3.48333 11.2833 3.375 6.075H5.65833C5.73333 9.89167 7.41667 11.4917 8.75 11.8417V6.08333H10.9V9.375C12.2167 9.23333 13.6 7.73333 14.0667 6.08333H16.2167C16.0439 6.94136 15.6956 7.75441 15.1937 8.47143C14.6918 9.18846 14.0471 9.79399 13.3 10.25C14.1329 10.6631 14.8687 11.248 15.4591 11.9662C16.0495 12.6844 16.4809 13.5196 16.725 14.4167L14.35 14.4083Z" fill="currentColor"></path>
  </symbol>

  <symbol fill="none" xmlns="http://www.w3.org/2000/svg" viewBox="0 0 20 20" id="whatsapp">
    <path d="M0 19.9995C0.214958 19.2136 0.419482 18.4673 0.62317 17.7205C0.869016 16.8198 1.11778 15.9195 1.35611 15.0167C1.37941 14.9195 1.3682 14.8172 1.32439 14.7274C0.364385 12.9844 -0.0530091 11.1153 0.113949 9.14015C0.353116 6.31271 1.59612 3.99033 3.7912 2.1901C5.01206 1.18469 6.4645 0.499791 8.0169 0.197456C12.655 -0.724987 17.1161 1.64832 19.0274 5.82144C19.7407 7.38124 20.0111 9.02161 19.8784 10.7242C19.5449 15.0062 16.3781 18.6509 12.185 19.5859C9.82129 20.1126 7.56027 19.8033 5.40192 18.7093C5.30563 18.6648 5.19723 18.6536 5.09388 18.6776C3.47982 19.095 1.86742 19.5174 0.255028 19.9394C0.183236 19.9569 0.111027 19.9728 0 19.9995ZM2.39418 17.632C2.48934 17.6091 2.56113 17.5928 2.63251 17.574C3.50904 17.3449 4.38557 17.1203 5.26209 16.8816C5.43907 16.8336 5.57305 16.8607 5.72749 16.9521C7.6379 18.0841 9.68105 18.4193 11.8494 17.9313C16.4825 16.8878 19.2878 12.0043 17.8599 7.47808C16.5589 3.35505 12.4421 0.966715 8.20723 1.88498C4.71447 2.64423 1.94715 5.7029 1.77267 9.56171C1.70047 11.157 2.05066 12.668 2.88545 14.0328C3.14966 14.4649 3.19599 14.8259 3.04114 15.2959C2.79195 16.0547 2.6108 16.8365 2.39418 17.632Z" fill="currentColor"></path>
    <path d="M4.93954 7.68205C4.95415 6.85394 5.27763 6.17275 5.8624 5.60467C5.94737 5.51737 6.0492 5.44826 6.16171 5.40154C6.27422 5.35483 6.39506 5.33149 6.51688 5.33295C6.65587 5.33295 6.79611 5.35382 6.93427 5.34005C7.22645 5.31125 7.3934 5.45483 7.49567 5.70318C7.77031 6.36099 8.05414 7.01547 8.30958 7.6808C8.35592 7.80142 8.32878 7.99426 8.2595 8.10654C8.07146 8.39718 7.86571 8.67597 7.64342 8.94133C7.51069 9.10578 7.49984 9.25187 7.60711 9.43219C8.4156 10.7896 9.53964 11.7767 11.0135 12.359C11.213 12.4378 11.3758 12.4065 11.5122 12.2337C11.7577 11.924 12.0131 11.6227 12.2527 11.3075C12.3904 11.1251 12.5516 11.0571 12.7561 11.1514C13.4657 11.4853 14.1702 11.8193 14.8702 12.1695C14.9436 12.2062 15.0117 12.3306 15.0146 12.417C15.043 13.1537 14.8289 13.7706 14.1723 14.2001C13.355 14.7344 12.4969 14.7811 11.5845 14.5248C9.24413 13.8678 7.5061 12.4045 6.11075 10.4728C5.65162 9.83414 5.22838 9.17632 5.04974 8.39663C4.99381 8.16414 4.97461 7.92122 4.93954 7.68205Z" fill="currentColor"></path>
  </symbol>
</svg>
 


 