<svg width="12" height="24" viewBox="0 0 12 24" fill="none" xmlns="http://www.w3.org/2000/svg">
<path d="M3.46967 15.4697C3.17678 15.7626 3.17678 16.2374 3.46967 16.5303C3.76256 16.8232 4.23744 16.8232 4.53033 16.5303L3.46967 15.4697ZM8 12L8.53033 12.5303C8.82322 12.2374 8.82322 11.7626 8.53033 11.4697L8 12ZM4.53033 7.46967C4.23744 7.17678 3.76256 7.17678 3.46967 7.46967C3.17678 7.76256 3.17678 8.23744 3.46967 8.53033L4.53033 7.46967ZM4.53033 16.5303L8.53033 12.5303L7.46967 11.4697L3.46967 15.4697L4.53033 16.5303ZM8.53033 11.4697L4.53033 7.46967L3.46967 8.53033L7.46967 12.5303L8.53033 11.4697Z" fill="#7C878B"/>
</svg>
