<svg width="100" height="100" viewBox="0 0 100 100" fill="none" xmlns="http://www.w3.org/2000/svg">
<rect opacity="0.8" width="100" height="100" rx="24" fill="#4FCA9C"/>
<path d="M69.1747 48.4534L36.555 28.5185C36.2803 28.3506 35.9657 28.2589 35.6438 28.2529C35.3219 28.2469 35.0041 28.3267 34.7233 28.4842C34.4424 28.6417 34.2086 28.8712 34.0459 29.149C33.8831 29.4269 33.7974 29.7431 33.7974 30.0651V69.9349C33.7974 70.2569 33.8831 70.5731 34.0459 70.8509C34.2086 71.1288 34.4424 71.3583 34.7233 71.5158C35.0041 71.6733 35.3219 71.7531 35.6438 71.7471C35.9657 71.7411 36.2803 71.6494 36.555 71.4815L69.1747 51.5465C69.4397 51.3846 69.6586 51.1574 69.8104 50.8866C69.9623 50.6158 70.0421 50.3105 70.0421 50C70.0421 49.6895 69.9623 49.3842 69.8104 49.1134C69.6586 48.8426 69.4397 48.6153 69.1747 48.4534Z" stroke="white" stroke-width="1.5" stroke-linecap="round" stroke-linejoin="round"/>
</svg>
