<svg width="125" height="30" viewBox="0 0 125 30" fill="none" xmlns="http://www.w3.org/2000/svg">
<path d="M97.5474 23.8648C102.447 23.8648 105.42 20.6282 105.42 15.8291C105.42 11.0198 102.447 7.7832 97.5474 7.7832C92.6467 7.7832 89.6738 11.0198 89.6738 15.8291C89.6738 20.6282 92.6467 23.8648 97.5474 23.8648ZM97.5774 20.1209C95.741 20.1209 94.7267 18.3758 94.7267 15.7986C94.7267 13.2114 95.741 11.4561 97.5774 11.4561C99.3531 11.4561 100.368 13.2114 100.368 15.7986C100.368 18.3758 99.3531 20.1209 97.5774 20.1209Z" fill="#5E85FB"/>
<path d="M107.962 23.5712H112.923V18.8939L113.928 17.6763L117.641 23.5712H123.373L117.62 14.7746L123.15 7.98678H117.53L113.146 13.5671H112.923V2.79199H107.962V23.5712Z" fill="#5E85FB"/>
<path d="M1.57227 23.5712H6.59459V17.1183H10.0036C14.7622 17.1183 17.735 14.2977 17.735 9.98556C17.735 5.71407 14.8231 2.79199 10.1559 2.79199H1.57227V23.5712ZM6.59459 13.1613V6.84029H9.07022C11.3226 6.84029 12.5301 8.05785 12.5301 9.98556C12.5301 11.9032 11.3226 13.1613 9.07022 13.1613H6.59459Z" fill="#5E85FB"/>
<path d="M25.1724 2.79199H20.2109V23.5712H25.1724V2.79199Z" fill="#5E85FB"/>
<path d="M32.7234 23.8343C34.8946 23.8343 36.3963 22.9923 37.2485 21.3993H37.3703V23.5706H42.0375V12.9781C42.0375 9.68056 39.1053 7.7832 35.1382 7.7832C30.9478 7.7832 28.5736 9.89363 28.1779 12.7346L32.7538 12.8968C32.9669 11.9026 33.7888 11.2938 35.0975 11.2938C36.3151 11.2938 37.0862 11.8823 37.0862 12.9273V12.9781C37.0862 13.9318 36.0513 14.1347 33.393 14.3681C30.2376 14.6318 27.5996 15.7986 27.5996 19.2483C27.5996 22.3328 29.7404 23.8343 32.7234 23.8343ZM34.2555 20.5876C33.109 20.5876 32.2973 20.0397 32.2973 19.0048C32.2973 18.0003 33.0886 17.3916 34.499 17.1785C35.4223 17.0466 36.5586 16.8437 37.1166 16.5495V18.0308C37.1166 19.5527 35.8383 20.5876 34.2555 20.5876Z" fill="#5E85FB"/>
<path d="M47.5473 29.4149C51.1187 29.4149 52.8943 27.6089 53.7567 25.0623L59.6313 7.99647L54.4061 7.98633L51.4941 19.1065H51.3318L48.4604 7.98633H43.2656L48.8054 24.139L48.6126 24.6057C48.1358 25.7725 47.0603 25.7928 45.5992 25.3159L44.5035 28.9178C45.2543 29.2221 46.3602 29.4149 47.5473 29.4149Z" fill="#5E85FB"/>
<path d="M68.3161 23.8648C72.4053 23.8648 75.0938 21.8863 75.6617 18.8222L71.1063 18.6903C70.7208 19.7252 69.7061 20.2832 68.4075 20.2832C66.5 20.2832 65.323 19.015 65.323 17.1075V16.9756H75.7124V15.7378C75.7124 10.6038 72.5874 7.7832 68.164 7.7832C63.4561 7.7832 60.4326 11.0097 60.4326 15.8392C60.4326 20.8311 63.4155 23.8648 68.3161 23.8648ZM65.323 14.0941C65.394 12.5418 66.6218 11.3648 68.2654 11.3648C69.8989 11.3648 71.0759 12.5012 71.0962 14.0941H65.323Z" fill="#5E85FB"/>
<path d="M78.2461 23.5709H83.2075V15.1091C83.2075 13.2524 84.5268 12.0044 86.3018 12.0044C86.8904 12.0044 87.7732 12.1059 88.2504 12.2682V7.95608C87.834 7.84451 87.3168 7.77344 86.8604 7.77344C85.1554 7.77344 83.7961 8.76779 83.2275 10.8274H83.0654V7.98651H78.2461V23.5709Z" fill="#5E85FB"/>
<g opacity="0.5">
<path d="M15.103 15.6263C16.7866 14.382 17.7354 12.4219 17.7354 9.98584C17.7354 8.73634 17.4862 7.60227 17.0167 6.62305L15.103 15.6263Z" fill="white"/>
<path d="M20.2109 19.0793L23.6729 2.79199H20.2109V19.0793Z" fill="white"/>
<path d="M23.6377 23.5721L25.1725 23.5715V16.3516L23.6377 23.5721Z" fill="white"/>
<path d="M29.5836 23.0815L31.3651 14.7002C29.1837 15.2738 27.5996 16.5761 27.5996 19.2493C27.5996 21.0766 28.351 22.3483 29.5836 23.0815Z" fill="white"/>
<path d="M31.7565 12.8625L32.7814 8.04102C30.0541 8.68502 28.4929 10.48 28.1787 12.7356L31.7565 12.8625Z" fill="white"/>
</g>
</svg>
