<svg width="34" height="34" viewBox="0 0 34 34" fill="none" xmlns="http://www.w3.org/2000/svg">
<mask id="mask0_720_5247" style="mask-type:alpha" maskUnits="userSpaceOnUse" x="0" y="0" width="34" height="34">
<rect width="34" height="34" fill="#D9D9D9"/>
</mask>
<g mask="url(#mask0_720_5247)">
<path d="M5.84375 9.19833L9.1893 15.1783V18.8259L5.84766 24.7942L5.84375 9.19833Z" stroke="#AFC5BE" stroke-linejoin="round"/>
<path d="M18.6914 13.0025L21.8262 11.0811L28.242 11.0751L18.6914 16.9259V13.0025Z" stroke="#AFC5BE" stroke-linejoin="round"/>
<path d="M18.6716 9.16562L18.6893 17.0829L15.3359 15.0224V3.1875L18.6716 9.16562Z" stroke="#AFC5BE" stroke-linejoin="round"/>
<path d="M28.24 11.0774L21.824 11.0833L18.6716 9.16561L15.3359 3.1875L28.24 11.0774Z" stroke="#AFC5BE" stroke-linejoin="round"/>
<path d="M18.6893 24.8281V20.9869L15.3359 18.9656L15.3378 30.8123L18.6893 24.8281Z" stroke="#AFC5BE" stroke-linejoin="round"/>
<path d="M21.8164 22.9234L9.18907 15.1783L5.84375 9.19833L28.2264 22.9155L21.8164 22.9234Z" stroke="#AFC5BE" stroke-linejoin="round"/>
<path d="M15.3359 30.811L18.687 24.8269L21.814 22.923L28.224 22.9151L15.3359 30.811Z" stroke="#AFC5BE" stroke-linejoin="round"/>
<path d="M5.84766 24.7989L15.3633 18.9698L12.1642 17.0069L9.18929 18.8307L5.84766 24.7989Z" stroke="#AFC5BE" stroke-linejoin="round"/>
</g>
</svg>
