<svg width="60" height="18" viewBox="0 0 60 18" fill="none" xmlns="http://www.w3.org/2000/svg">
<rect width="60" height="18" rx="6" fill="#66D8AD"/>
<path d="M14.3718 5.644C14.1878 5.644 13.9998 5.66 13.8078 5.692C13.6158 5.724 13.4398 5.784 13.2798 5.872C13.1198 5.952 12.9878 6.068 12.8838 6.22C12.7798 6.364 12.7278 6.548 12.7278 6.772C12.7278 7.108 12.8398 7.364 13.0638 7.54C13.2878 7.708 13.5558 7.836 13.8678 7.924C14.0918 7.988 14.3158 8.048 14.5398 8.104C14.7718 8.16 14.9838 8.208 15.1758 8.248C15.5118 8.32 15.8278 8.408 16.1238 8.512C16.4278 8.616 16.6918 8.756 16.9158 8.932C17.1398 9.1 17.3158 9.316 17.4438 9.58C17.5798 9.836 17.6478 10.156 17.6478 10.54C17.6478 10.996 17.5638 11.384 17.3958 11.704C17.2358 12.024 17.0158 12.288 16.7358 12.496C16.4558 12.704 16.1278 12.856 15.7518 12.952C15.3758 13.048 14.9718 13.096 14.5398 13.096C14.0998 13.096 13.6798 13.052 13.2798 12.964C12.8878 12.868 12.5358 12.72 12.2238 12.52C11.9118 12.312 11.6518 12.048 11.4438 11.728C11.2358 11.408 11.1038 11.024 11.0478 10.576H12.4878C12.5518 10.816 12.6558 11.016 12.7998 11.176C12.9438 11.336 13.1078 11.464 13.2918 11.56C13.4838 11.656 13.6878 11.724 13.9038 11.764C14.1198 11.804 14.3318 11.824 14.5398 11.824C14.7638 11.824 14.9798 11.808 15.1878 11.776C15.3958 11.736 15.5758 11.672 15.7278 11.584C15.8798 11.496 16.0038 11.38 16.0998 11.236C16.1958 11.092 16.2438 10.904 16.2438 10.672C16.2438 10.352 16.1598 10.12 15.9918 9.976C15.8238 9.824 15.5998 9.712 15.3198 9.64C14.9358 9.528 14.5398 9.432 14.1318 9.352C13.7318 9.264 13.3518 9.152 12.9918 9.016C12.7518 8.928 12.5318 8.824 12.3318 8.704C12.1318 8.584 11.9558 8.44 11.8038 8.272C11.6518 8.104 11.5318 7.908 11.4438 7.684C11.3638 7.452 11.3238 7.184 11.3238 6.88C11.3238 6.416 11.4118 6.028 11.5878 5.716C11.7638 5.396 11.9918 5.14 12.2718 4.948C12.5598 4.756 12.8838 4.62 13.2438 4.54C13.6038 4.452 13.9718 4.408 14.3478 4.408C14.7478 4.408 15.1278 4.456 15.4878 4.552C15.8478 4.64 16.1678 4.78 16.4478 4.972C16.7278 5.164 16.9518 5.412 17.1198 5.716C17.2958 6.02 17.3998 6.388 17.4318 6.82H16.0638C16.0318 6.604 15.9638 6.424 15.8598 6.28C15.7638 6.136 15.6398 6.02 15.4878 5.932C15.3438 5.836 15.1758 5.768 14.9838 5.728C14.7918 5.68 14.5878 5.652 14.3718 5.644ZM19.2711 4.516H22.3791C22.8671 4.516 23.3031 4.572 23.6871 4.684C24.0791 4.788 24.4111 4.956 24.6831 5.188C24.9631 5.42 25.1751 5.72 25.3191 6.088C25.4711 6.448 25.5471 6.884 25.5471 7.396C25.5471 7.868 25.4671 8.288 25.3071 8.656C25.1551 9.024 24.9351 9.332 24.6471 9.58C24.3671 9.828 24.0311 10.016 23.6391 10.144C23.2471 10.272 22.8111 10.336 22.3311 10.336H20.6631V13H19.2711V4.516ZM22.2591 9.112C22.7951 9.112 23.2391 8.98 23.5911 8.716C23.9511 8.444 24.1391 8.024 24.1551 7.456C24.1551 6.856 23.9991 6.424 23.6871 6.16C23.3831 5.896 22.9351 5.764 22.3431 5.764H20.6631V9.112H22.2591ZM27.0641 4.516H32.9561V5.764H28.4561V8.176H32.4401V9.436H28.4561V11.764H32.9561V13H27.0641V4.516ZM34.4586 4.516H40.3506V5.764H35.8506V8.176H39.8346V9.436H35.8506V11.764H40.3506V13H34.4586V4.516ZM41.8531 4.516H44.9251C45.5971 4.516 46.1891 4.616 46.7011 4.816C47.2211 5.008 47.6531 5.288 47.9971 5.656C48.3491 6.016 48.6131 6.46 48.7891 6.988C48.9651 7.516 49.0531 8.108 49.0531 8.764C49.0531 9.428 48.9651 10.02 48.7891 10.54C48.6131 11.06 48.3531 11.504 48.0091 11.872C47.6731 12.24 47.2491 12.52 46.7371 12.712C46.2331 12.904 45.6451 13 44.9731 13H41.8531V4.516ZM43.2451 5.764V11.764H44.9371C45.4011 11.764 45.8011 11.692 46.1371 11.548C46.4731 11.404 46.7491 11.204 46.9651 10.948C47.1891 10.684 47.3531 10.368 47.4571 10C47.5691 9.632 47.6251 9.22 47.6251 8.764C47.6251 7.82 47.3931 7.084 46.9291 6.556C46.4731 6.028 45.8051 5.764 44.9251 5.764H43.2451Z" fill="white"/>
</svg>
