<svg width="166" height="50" viewBox="0 0 166 50" fill="none" xmlns="http://www.w3.org/2000/svg">
<path d="M24.9138 0C11.781 0 1.02235 10.1263 0 22.9952L13.3996 28.5353C14.5349 27.7588 15.9065 27.3038 17.3821 27.3038C17.5144 27.3038 17.6461 27.3083 17.7766 27.3157L23.7355 18.6786C23.7355 18.6373 23.7349 18.5972 23.7349 18.5565C23.7349 13.3577 27.9639 9.12821 33.1632 9.12821C38.362 9.12821 42.591 13.3577 42.591 18.5565C42.591 23.7553 38.362 27.9854 33.1632 27.9854C33.0915 27.9854 33.0202 27.9837 32.949 27.982L24.4504 34.046C24.4549 34.1562 24.4589 34.2686 24.4589 34.3805C24.4589 38.2834 21.2845 41.4573 17.3821 41.4573C13.9568 41.4573 11.0927 39.0125 10.4439 35.7748L0.86128 31.8131C3.82829 42.3067 13.4691 50 24.9138 50C38.7214 50 49.9141 38.8068 49.9141 25.0008C49.9141 11.1927 38.7209 0 24.9138 0Z" fill="white"/>
<path d="M15.6663 37.9336L12.5953 36.6648C13.1396 37.798 14.0811 38.7468 15.3312 39.2679C18.0337 40.3937 21.1494 39.1114 22.2757 36.4066C22.8211 35.0988 22.8244 33.6549 22.2836 32.3438C21.7439 31.0321 20.7255 30.0091 19.4161 29.4632C18.1168 28.9224 16.7248 28.9421 15.5019 29.4039L18.674 30.7156C20.6673 31.5463 21.61 33.8352 20.7792 35.8284C19.9501 37.8223 17.6596 38.7649 15.6663 37.9336Z" fill="white"/>
<path d="M39.4448 18.5566C39.4448 15.0928 36.627 12.2744 33.1626 12.2744C29.6989 12.2744 26.8805 15.0928 26.8805 18.5566C26.8805 22.0209 29.6989 24.8381 33.1626 24.8381C36.627 24.8376 39.4448 22.0203 39.4448 18.5566ZM28.4539 18.5458C28.4539 15.9394 30.5669 13.8269 33.1734 13.8269C35.7798 13.8269 37.8929 15.9394 37.8929 18.5458C37.8929 21.1523 35.7798 23.2648 33.1734 23.2648C30.5669 23.2648 28.4539 21.1517 28.4539 18.5458Z" fill="white"/>
<path d="M76.6132 17.1053L74.9381 20.0497C73.6479 19.1482 71.8994 18.6057 70.3729 18.6057C68.6283 18.6057 67.5489 19.328 67.5489 20.6216C67.5489 22.1932 69.4664 22.5589 72.3164 23.5818C75.3801 24.6652 77.1411 25.9385 77.1411 28.7444C77.1411 32.5834 74.1221 34.7394 69.7829 34.7394C67.6681 34.7394 65.1171 34.1935 63.156 33.0005L64.3778 29.7362C65.971 30.5777 67.8767 31.0767 69.5755 31.0767C71.8654 31.0767 72.9539 30.2319 72.9539 28.9829C72.9539 27.5536 71.2941 27.1241 68.6147 26.2369C65.5613 25.2173 63.4454 23.8796 63.4454 20.7742C63.4454 17.272 66.2502 15.2606 70.2859 15.2606C73.0986 15.2606 75.3592 16.1519 76.6132 17.1053Z" fill="white"/>
<path d="M89.7076 18.9662V34.4167H85.7635V18.9662H80.0386V15.5833H95.4156V18.9662H89.7076Z" fill="white"/>
<path d="M103.73 18.956V23.1997H111.278V26.5827H103.73V31.0026H112.487V34.4167H99.787V15.5833H112.487V18.956H103.73Z" fill="white"/>
<path d="M121.291 30.7602L120.044 34.4173H115.909L122.971 15.5839H126.941L134.202 34.4167H129.928L128.654 30.7597L121.291 30.7602ZM124.934 20.0762L122.362 27.6169H127.559L124.934 20.0762Z" fill="white"/>
<path d="M154.444 22.8629L149.29 33.8679H147.064L141.994 22.9612V34.4167H138.217V15.5833H141.985L148.315 29.1784L154.42 15.5833H158.221V34.4167H154.444L154.444 22.8629Z" fill="white"/>
<path d="M165.846 17.9591C165.846 19.5777 164.633 20.5865 163.241 20.5865C161.844 20.5865 160.628 19.5777 160.628 17.9591C160.628 16.3411 161.844 15.3391 163.241 15.3391C164.633 15.3391 165.846 16.3411 165.846 17.9591ZM161.066 17.9591C161.066 19.3132 162.042 20.1637 163.241 20.1637C164.436 20.1637 165.407 19.3132 165.407 17.9591C165.407 16.6011 164.436 15.7635 163.241 15.7635C162.045 15.7635 161.066 16.6113 161.066 17.9591ZM163.277 16.6203C163.952 16.6203 164.18 16.9775 164.18 17.3635C164.18 17.7172 163.97 17.9546 163.714 18.0755L164.32 19.2098H163.824L163.314 18.2044H162.788V19.2098H162.375V16.6203H163.277ZM162.792 17.8252H163.252C163.549 17.8252 163.725 17.6381 163.725 17.403C163.725 17.1657 163.599 17.0131 163.25 17.0131H162.791V17.8252H162.792Z" fill="white"/>
</svg>
