<svg width="30" height="30" viewBox="0 0 30 30" fill="none" xmlns="http://www.w3.org/2000/svg">
<path d="M16 8.99997V15.0377L20 17" stroke="#AFC5BE" stroke-linecap="round" stroke-linejoin="round"/>
<path d="M25 16.6928C24.4788 18.8602 23.202 20.778 21.3929 22.1111C19.5839 23.4441 17.3574 24.1077 15.1028 23.9857C12.8481 23.8638 10.7086 22.9641 9.05805 21.4439C7.40755 19.9237 6.35105 17.8797 6.07318 15.669C5.79531 13.4584 6.31374 11.2217 7.53787 9.34986C8.762 7.47802 10.614 6.09007 12.7702 5.42855C14.9264 4.76702 17.2496 4.87401 19.334 5.7308C21.4183 6.58759 23.1312 8.13969 24.1733 10.1159" stroke="#AFC5BE" stroke-linecap="round"/>
<path d="M25 6.99997V11H22" stroke="#AFC5BE" stroke-linecap="round" stroke-linejoin="round"/>
</svg>
