<svg width="125" height="22" viewBox="0 0 125 22" fill="none" xmlns="http://www.w3.org/2000/svg">
<g clip-path="url(#clip0_38_7516)">
<mask id="mask0_38_7516" style="mask-type:luminance" maskUnits="userSpaceOnUse" x="0" y="0" width="125" height="22">
<path d="M0.000976562 0H124.668V22H0.000976562V0Z" fill="white"/>
</mask>
<g mask="url(#mask0_38_7516)">
<mask id="mask1_38_7516" style="mask-type:luminance" maskUnits="userSpaceOnUse" x="0" y="-11" width="125" height="44">
<path d="M0 -11H124.667V33H0V-11Z" fill="white"/>
</mask>
<g mask="url(#mask1_38_7516)">
<path fill-rule="evenodd" clip-rule="evenodd" d="M61.4171 11.4587C61.4171 14.5203 59.1896 16.5003 56.0271 16.5003C52.8646 16.5003 50.6371 14.5203 50.6371 11.4587C50.6371 8.39699 52.8646 6.41699 56.0271 6.41699C59.1896 6.41699 61.4171 8.39699 61.4171 11.4587ZM52.9654 11.4587C52.9654 13.3562 54.2029 14.667 56.0271 14.667C57.8512 14.667 59.0887 13.3562 59.0887 11.4587C59.0887 9.56116 57.8512 8.29616 56.0271 8.29616C54.2029 8.29616 52.9654 9.56116 52.9654 11.4587ZM37.3546 11.2662C38.2254 10.8628 38.7846 10.1845 38.7846 9.13033C38.7846 7.54449 37.3363 6.41699 35.2371 6.41699H30.4062V16.5003H35.4479C37.6204 16.5003 39.1329 15.3178 39.1329 13.7045C39.1329 12.4853 38.3354 11.5778 37.3546 11.2662ZM32.6338 8.25949H35.2279C36.0071 8.25949 36.5479 8.71783 36.5479 9.35949C36.5479 10.0012 35.9979 10.4595 35.2279 10.4595H32.6338V8.25033V8.25949ZM35.4479 14.667H32.6429V12.192H35.4479C36.3279 12.192 36.9054 12.6962 36.9054 13.4387C36.9054 14.172 36.3279 14.6578 35.4479 14.6578V14.667ZM47.5204 16.5003H50.4446L45.8063 11.2662L50.0596 6.41699H47.4013L44.0279 10.3312H43.4779V6.41699H41.2504V16.5003H43.4871V12.4853H44.0279L47.5113 16.5003H47.5204ZM70.0979 6.41699V10.3953H65.5788V6.41699H63.3421V16.5003H65.5696V12.4303H70.0887V16.5003H72.3162V6.41699H70.0887H70.0979ZM79.6588 16.5003H77.4221V8.45199H73.9388V6.41699H83.1421V8.45199H79.6588V16.5003ZM88.5504 6.41699C86.5887 6.41699 84.8654 7.23283 84.3612 8.98366L86.4146 9.32283C86.609 8.96154 86.9013 8.66238 87.258 8.45971C87.6147 8.25703 88.0214 8.15904 88.4313 8.17699C89.6504 8.17699 90.3746 9.00199 90.4663 10.3128H88.2938C85.3329 10.3128 83.8571 11.6145 83.8571 13.4753C83.8571 15.3545 85.3146 16.5003 87.3679 16.5003C89.0179 16.5003 90.1179 15.7487 90.6037 14.9145L91.0621 16.5003H92.7121V10.8353C92.7121 7.91116 91.1262 6.41699 88.5504 6.41699ZM87.8904 14.8137C86.7996 14.8137 86.1029 14.2545 86.1029 13.3745C86.1029 12.6045 86.6713 12.0637 88.3763 12.0637H90.4846C90.4846 13.7137 89.4396 14.8137 87.8904 14.8137ZM104.253 16.5003H101.32L97.8363 12.4853H97.2862V16.5003H95.0679V6.41699H97.2954V10.3312H97.8363L101.2 6.41699H103.859L99.6146 11.2662L104.244 16.5003H104.253ZM108.167 16.5003H110.404V8.45199H113.887V6.41699H104.684V8.45199H108.167V16.5003ZM119.442 6.41699C122.495 6.41699 124.667 8.43366 124.667 11.3395C124.667 11.6145 124.649 11.8437 124.63 12.0637H116.527C116.738 13.6128 117.865 14.6578 119.57 14.6578C120.753 14.6578 121.679 14.1537 122.165 13.4387L124.264 13.787C123.503 15.712 121.532 16.5003 119.433 16.5003C116.371 16.5003 114.199 14.502 114.199 11.4587C114.199 8.41533 116.371 6.41699 119.433 6.41699H119.442ZM122.247 10.3128C122.08 9.70176 121.711 9.16529 121.2 8.79079C120.689 8.41628 120.066 8.22579 119.433 8.25033C118.805 8.22631 118.188 8.41784 117.685 8.79307C117.181 9.16829 116.821 9.7046 116.665 10.3128H122.247Z" fill="black"/>
<path d="M10.5417 22H11.4583C16.445 22 18.9292 22 20.4692 20.46C22 18.92 22 16.4267 22 11.4583V10.5233C22 5.57333 22 3.08 20.4692 1.54C18.9292 0 16.4358 0 11.4583 0H10.5417C5.555 0 3.07083 0 1.53083 1.54C0 3.08 0 5.57333 0 10.5417V11.4767C0 16.4267 0 18.92 1.54 20.46C3.08 22 5.57333 22 10.5417 22Z" fill="#0077FF"/>
<path d="M11.7057 15.8489C6.69157 15.8489 3.83157 12.4114 3.7124 6.69141H6.22407C6.30657 10.8897 8.15824 12.6681 9.6249 13.0347V6.69141H11.9899V10.3122C13.4382 10.1564 14.9599 8.50641 15.4732 6.69141H17.8382C17.6448 7.63272 17.2592 8.52399 16.7056 9.30947C16.152 10.095 15.4422 10.7578 14.6207 11.2564C15.5377 11.712 16.3476 12.357 16.997 13.1486C17.6465 13.9402 18.1206 14.8606 18.3882 15.8489H15.7849C15.5447 14.9905 15.0564 14.222 14.3813 13.6399C13.7062 13.0577 12.8743 12.6878 11.9899 12.5764V15.8489H11.7057Z" fill="white"/>
</g>
</g>
</g>
<defs>
<clipPath id="clip0_38_7516">
<rect width="124.667" height="22" fill="white"/>
</clipPath>
</defs>
</svg>
