<svg width="129" height="15" viewBox="0 0 129 15" fill="none" xmlns="http://www.w3.org/2000/svg">
<path d="M3.91443 14.7097L0 0.242188H2.59198L5.60715 11.3507L8.83391 0.242188H11.2407L14.4675 11.4036L17.4827 0.242188H20.0482L16.1338 14.7097H13.1451L9.99765 3.91857L6.87669 14.7097H3.91443Z" fill="#BE11A5"/>
<path d="M21.8438 0.242188H24.3035V14.7097H21.8438V0.242188Z" fill="#BE11A5"/>
<path d="M29.5201 12.435H35.4711V14.7096H27.1133V0.268555H29.5201V12.435Z" fill="#BE11A5"/>
<path d="M43.0334 0.268192C44.9113 0.215294 46.7363 0.982312 48.0322 2.35765C50.7036 5.24057 50.7036 9.73687 48.0322 12.6198C46.7363 13.9951 44.9113 14.7621 43.0334 14.7092H37.2676V0.268192H43.0334ZM43.0334 12.4346C44.4088 12.4346 45.5461 11.9586 46.3924 11.0329C47.2917 10.0807 47.7678 8.78471 47.7149 7.48872C47.7678 6.16628 47.2917 4.89674 46.3924 3.94458C45.5196 3.01887 44.303 2.48989 43.0334 2.54279H39.6744V12.4346H43.0334Z" fill="#BE11A5"/>
<path d="M62.946 10.5838C62.9724 11.6946 62.4964 12.779 61.6764 13.5196C60.8301 14.3131 59.7192 14.7363 58.5555 14.7098H52.2871V0.268748H58.1058C59.2167 0.2423 60.3011 0.665482 61.1475 1.40605C61.9674 2.12017 62.417 3.17812 62.3906 4.26252C62.4434 5.42627 61.8616 6.53712 60.9094 7.19834C62.179 7.83311 62.9724 9.15555 62.946 10.5838ZM54.6939 2.49045V6.29908H58.1058C59.1638 6.29908 60.0102 5.45272 60.0102 4.39477C60.0102 3.33681 59.1638 2.49045 58.1058 2.49045H54.6939ZM58.5555 12.4617C59.6663 12.4088 60.5391 11.4831 60.4862 10.3722C60.4598 9.31425 59.587 8.46789 58.5555 8.44144H54.6939V12.4881L58.5555 12.4617Z" fill="#BE11A5"/>
<path d="M67.6568 12.435H74.1368V14.7096H65.25V0.268555H74.031V2.54315H67.6568V6.29889H73.5285V8.54704H67.6568V12.435Z" fill="#BE11A5"/>
<path d="M84.6332 14.7107L81.5123 9.44737H78.6822V14.7107H76.2754V0.243181H82.147C83.3901 0.216733 84.6068 0.719259 85.4796 1.61852C86.3788 2.46488 86.8814 3.65508 86.8549 4.89817C86.8285 6.74959 85.6912 8.41586 83.9455 9.07708L87.2781 14.7107H84.6332ZM78.6822 2.49133V7.33146H82.1206C83.443 7.27857 84.4745 6.14126 84.4216 4.79238C84.3687 3.54928 83.3637 2.54423 82.1206 2.49133H78.6822Z" fill="#BE11A5"/>
<path d="M97.4661 14.7107L94.3716 9.44737H91.5416V14.7107H89.1348V0.243181H95.0064C96.2495 0.216733 97.4661 0.719259 98.339 1.61852C99.2382 2.46488 99.7407 3.65508 99.7143 4.89817C99.6878 6.74959 98.5505 8.41586 96.8049 9.07708L100.137 14.7107H97.4661ZM91.5416 2.49133V7.33146H94.98C96.3288 7.25212 97.3339 6.11481 97.2546 4.76593C97.1752 3.54928 96.1966 2.54423 94.98 2.49133H91.5416Z" fill="#BE11A5"/>
<path d="M101.879 0.242188H104.286V14.7097H101.879V0.242188Z" fill="#BE11A5"/>
<path d="M109.527 12.435H116.007V14.7096H107.12V0.268555H115.901V2.54315H109.527V6.29889H115.399V8.54704H109.527V12.435Z" fill="#BE11A5"/>
<path d="M117.699 11.4294L119.789 10.2392C120.371 11.879 121.587 12.6725 123.412 12.6725C125.237 12.6725 126.136 11.9055 126.136 10.7682C126.163 10.2392 125.872 9.71024 125.396 9.44575C124.92 9.12836 124.047 8.78452 122.804 8.41424C121.402 7.99106 120.714 7.72657 119.736 7.0918C118.757 6.45703 118.308 5.47842 118.308 4.18243C118.255 3.01868 118.784 1.88138 119.683 1.14082C120.609 0.373801 121.799 -0.0229319 123.015 0.0035169C125.211 -0.0758296 127.221 1.19371 128.12 3.17738L126.11 4.31467C125.502 2.99223 124.47 2.30457 123.042 2.30457C121.614 2.30457 120.741 2.99223 120.741 4.10308C120.741 5.21393 121.455 5.66356 123.703 6.35123C124.259 6.53638 124.655 6.66862 124.92 6.77442C125.184 6.88021 125.555 7.01246 126.004 7.1976C126.374 7.32984 126.745 7.54143 127.062 7.77947C127.829 8.38779 128.675 9.3664 128.57 10.7417C128.623 11.9584 128.094 13.0957 127.141 13.8627C126.189 14.6297 124.946 15 123.386 15C120.503 14.9736 118.44 13.6247 117.699 11.4294Z" fill="#BE11A5"/>
</svg>
