<svg width="20" height="20" viewBox="0 0 20 20" fill="none" xmlns="http://www.w3.org/2000/svg">
<path d="M0 19.9995C0.214958 19.2136 0.419482 18.4673 0.62317 17.7205C0.869016 16.8198 1.11778 15.9195 1.35611 15.0167C1.37941 14.9195 1.3682 14.8172 1.32439 14.7274C0.364385 12.9844 -0.0530091 11.1153 0.113949 9.14015C0.353116 6.31271 1.59612 3.99033 3.7912 2.1901C5.01206 1.18469 6.4645 0.499791 8.0169 0.197456C12.655 -0.724987 17.1161 1.64832 19.0274 5.82144C19.7407 7.38124 20.0111 9.02161 19.8784 10.7242C19.5449 15.0062 16.3781 18.6509 12.185 19.5859C9.82129 20.1126 7.56027 19.8033 5.40192 18.7093C5.30563 18.6648 5.19723 18.6536 5.09388 18.6776C3.47982 19.095 1.86742 19.5174 0.255028 19.9394C0.183236 19.9569 0.111027 19.9728 0 19.9995ZM2.39418 17.632C2.48934 17.6091 2.56113 17.5928 2.63251 17.574C3.50904 17.3449 4.38557 17.1203 5.26209 16.8816C5.43907 16.8336 5.57305 16.8607 5.72749 16.9521C7.6379 18.0841 9.68105 18.4193 11.8494 17.9313C16.4825 16.8878 19.2878 12.0043 17.8599 7.47808C16.5589 3.35505 12.4421 0.966715 8.20723 1.88498C4.71447 2.64423 1.94715 5.7029 1.77267 9.56171C1.70047 11.157 2.05066 12.668 2.88545 14.0328C3.14966 14.4649 3.19599 14.8259 3.04114 15.2959C2.79195 16.0547 2.6108 16.8365 2.39418 17.632Z" fill="#1F3238"/>
<path d="M4.93954 7.68205C4.95415 6.85394 5.27763 6.17275 5.8624 5.60467C5.94737 5.51737 6.0492 5.44826 6.16171 5.40154C6.27422 5.35483 6.39506 5.33149 6.51688 5.33295C6.65587 5.33295 6.79611 5.35382 6.93427 5.34005C7.22645 5.31125 7.3934 5.45483 7.49567 5.70318C7.77031 6.36099 8.05414 7.01547 8.30958 7.6808C8.35592 7.80142 8.32878 7.99426 8.2595 8.10654C8.07146 8.39718 7.86571 8.67597 7.64342 8.94133C7.51069 9.10578 7.49984 9.25187 7.60711 9.43219C8.4156 10.7896 9.53964 11.7767 11.0135 12.359C11.213 12.4378 11.3758 12.4065 11.5122 12.2337C11.7577 11.924 12.0131 11.6227 12.2527 11.3075C12.3904 11.1251 12.5516 11.0571 12.7561 11.1514C13.4657 11.4853 14.1702 11.8193 14.8702 12.1695C14.9436 12.2062 15.0117 12.3306 15.0146 12.417C15.043 13.1537 14.8289 13.7706 14.1723 14.2001C13.355 14.7344 12.4969 14.7811 11.5845 14.5248C9.24413 13.8678 7.5061 12.4045 6.11075 10.4728C5.65162 9.83414 5.22838 9.17632 5.04974 8.39663C4.99381 8.16414 4.97461 7.92122 4.93954 7.68205Z" fill="#1F3238"/>
</svg>
