<svg width="121" height="23" viewBox="0 0 121 23" fill="none" xmlns="http://www.w3.org/2000/svg">
<g clip-path="url(#clip0_38_7500)">
<path d="M11.332 22.1376C17.2598 22.1376 22.0653 17.3321 22.0653 11.4042C22.0653 5.47638 17.2598 0.670898 11.332 0.670898C5.40411 0.670898 0.598633 5.47638 0.598633 11.4042C0.598633 17.3321 5.40411 22.1376 11.332 22.1376Z" fill="#FC3F1D"/>
<path d="M12.865 6.7084H11.8109C9.89421 6.7084 9.03171 7.66673 9.03171 9.0084C9.03171 10.5417 9.60671 11.3084 11.0442 12.2667L12.0984 13.0334L9.03171 17.8251H6.54004L9.51087 13.5126C7.78587 12.2667 6.92337 11.2126 6.92337 9.20007C6.92337 6.7084 8.64837 4.9834 11.9067 4.9834H15.165V17.8251H12.9609V6.7084H12.865Z" fill="white"/>
<path d="M34.1406 22.1376C40.0822 22.1376 44.8739 17.3459 44.8739 11.4042C44.8739 5.46257 40.0822 0.670898 34.1406 0.670898C28.1989 0.670898 23.4072 5.46257 23.4072 11.4042C23.4072 17.3459 28.1989 22.1376 34.1406 22.1376Z" fill="#FED42B"/>
<path d="M56.1825 18.8793H58.4825L61.7408 6.70846V18.8793H64.4242V2.7793H60.7825L57.5242 14.6626L54.2658 2.7793H50.5283V18.8793H52.8283V6.8043L56.1825 18.8793ZM75.445 11.021C75.445 8.2418 74.0075 7.0918 71.1325 7.0918C69.3117 7.0918 67.8742 7.6668 67.0117 8.14596V10.446C67.7783 9.87096 69.4075 9.29596 70.7492 9.29596C72.0908 9.29596 72.6658 9.77513 72.6658 11.021V11.6918H72.1867C67.97 11.6918 66.0533 13.1293 66.0533 15.4293C66.0533 17.8251 67.4908 19.071 69.5992 19.071C71.2283 19.071 71.8992 18.496 72.4742 18.0168H72.57C72.57 18.3043 72.6658 18.6876 72.7617 18.9751H75.445C75.3492 18.0168 75.3492 17.0585 75.3492 16.1001V11.021H75.445ZM72.6658 16.1001C72.2825 16.5793 71.7075 17.0585 70.6533 17.0585C69.5033 17.0585 68.9283 16.3876 68.9283 15.3335C68.9283 13.9918 69.8867 13.5126 72.2825 13.5126H72.6658V16.1001ZM80.2367 7.28346H77.6492V22.3293H80.4283V17.6335C81.0992 18.6876 82.1533 19.2626 83.3033 19.2626C85.9867 19.2626 87.8075 17.1543 87.8075 13.2251C87.8075 9.29596 85.9867 7.18763 83.3992 7.18763C82.0575 7.18763 81.0033 7.76263 80.3325 8.91263L80.2367 7.28346ZM82.6325 16.9626C81.195 16.9626 80.4283 15.8126 80.4283 13.1293C80.4283 10.446 81.195 9.20013 82.7283 9.20013C84.2617 9.20013 84.9325 10.3501 84.9325 13.0335C85.0283 15.8126 84.1658 16.9626 82.6325 16.9626ZM96.5283 18.8793H99.6908L95.2825 12.6501L99.2117 7.28346H96.4325L92.5033 12.6501V7.28346H89.7242V18.9751H92.5033V13.2251L96.5283 18.8793ZM108.891 18.1126V15.9085C108.028 16.4835 106.591 16.9626 105.249 16.9626C103.237 16.9626 102.47 16.0043 102.374 14.0876H108.987V12.6501C108.987 8.62513 107.166 7.0918 104.482 7.0918C101.128 7.0918 99.4992 9.6793 99.4992 13.2251C99.4992 17.2501 101.512 19.2626 105.057 19.2626C106.782 19.1668 108.124 18.6876 108.891 18.1126ZM104.482 9.20013C105.824 9.20013 106.303 10.3501 106.303 11.7876V11.9793H102.47C102.47 10.1585 103.141 9.20013 104.482 9.20013ZM118.857 9.48763V7.28346H109.657V9.48763H112.916V18.9751H115.695V9.48763H118.857Z" fill="black"/>
<mask id="mask0_38_7500" style="mask-type:luminance" maskUnits="userSpaceOnUse" x="23" y="0" width="22" height="23">
<path d="M34.1406 22.1376C40.0822 22.1376 44.8739 17.3459 44.8739 11.4042C44.8739 5.46257 40.0822 0.670898 34.1406 0.670898C28.1989 0.670898 23.4072 5.46257 23.4072 11.4042C23.4072 17.3459 28.1989 22.1376 34.1406 22.1376Z" fill="white"/>
</mask>
<g mask="url(#mask0_38_7500)">
<path d="M28.8702 6.51673L19.4785 18.7834L21.9702 21.6584L28.966 12.4584L28.2952 17.5376L32.2243 18.8792L36.9202 11.2126C36.7285 12.6501 36.3452 15.9084 39.5077 16.8667C44.3952 18.4001 48.7077 9.48756 50.7202 5.07923L47.8452 3.5459C45.641 8.1459 42.191 13.3209 40.8493 12.9376C39.5077 12.5542 40.7535 8.24173 41.5202 5.46256L37.2077 4.02506L32.0327 12.4584L32.7035 7.8584L28.8702 6.51673Z" fill="black"/>
</g>
</g>
<defs>
<clipPath id="clip0_38_7500">
<rect width="120.031" height="23" fill="white"/>
</clipPath>
</defs>
</svg>
